  0
SECTION
  2
HEADER
  9
$ACADVER
  1
AC1009
  9
$INSBASE
 10
0.0
 20
0.0
 30
0.0
  9
$EXTMIN
 10
  0
 20
  0
 30
  0
  9
$EXTMAX
 10
368
 20
326
 30
0.0
  9
$LIMMIN
 10
0.0
 20
0.0
  9
$LIMMAX
 10
100.0
 20
100.0
  9
$ORTHOMODE
 70
     1
  9
$DIMSCALE
 40
1
  9
$DIMSTYLE
  2
STANDARD
  9
$FILLETRAD
 40
0.0
  9
$PSLTSCALE
 70
     1
  0
ENDSEC
  0
SECTION
  2
TABLES
  0
TABLE
  2
VPORT
 70
     2
  0
VPORT
  2
*ACTIVE
 70
     0
 10
0.0
 20
0.0
 11
1.0
 21
1.0
 12
50.0
 22
50.0
 13
0.0
 23
0.0
 14
1.0
 24
1.0
 15
0.0
 25
0.0
 16
0.0
 26
0.0
 36
1.0
 17
0.0
 27
0.0
 37
0.0
 40
100.0
 41
1.55
 42
50.0
 43
0.0
 44
0.0
 50
0.0
 51
0.0
 71
     0
 72
   100
 73
     1
 74
     1
 75
     0
 76
     0
 77
     0
 78
     0
  0
ENDTAB
  0
TABLE
  2
LTYPE
 70
     1
  0
LTYPE
  2
CONTINUOUS
  70
     0
  3
Solid Line
 72
    65
 73
     0
 40
0.0
  0
ENDTAB
  0
TABLE
  2
LAYER
 70
     3
  0
LAYER
  2
0
 70
     0
 62
     7
  6
CONTINUOUS
  0
LAYER
  2
JA
 70
     0
 62
     7
  6
CONTINUOUS
  0
LAYER
  2
DEFPOINTS
 70
     0
 62
     7
 6
CONTINUOUS
  0
ENDTAB
  0
TABLE
  2
VIEW
 70
     0
  0
ENDTAB
  0
TABLE
  2
DIMSTYLE
 70
     1
  0
DIMSTYLE
  2
STANDARD
 70
     0
  3

  4

  5

  6

  7

 40
1.0
 41
0.125
 42
0.04
 43
0.25
 44
0.125
 45
0.0
 46
0.0
 47
0.0
 48
0.0
140
0.125
141
0.06
142
0.0
143
25.4
144
1.0
145
0.0
146
1.0
147
0.09
 71
     0
 72
     0
 73
     1
 74
     1
 75
     0
 76
     0
 77
     0
 78
     0
170
     0
171
     2
172
     0
173
     0
174
     0
175
     0
176
     0
177
     0
178
     0
  0
ENDTAB
  0
ENDSEC
  0
SECTION
  2
BLOCKS
  0
ENDSEC
  0
SECTION
  2
ENTITIES
  0
LINE
8
JA
 10
0
 20
0
 30
0
 11
0
 21
160.02
 31
0
0
LINE
8
JA
 10
25.4
 20
0
 30
0
 11
25.4
 21
160.02
 31
0
0
LINE
8
JA
 10
0
 20
160.02
 30
0
 11
25.4
 21
160.02
 31
0
0
LINE
8
JA
 10
0
 20
0
 30
0
 11
25.4
 21
0
 31
0
0
LINE
8
JA
 10
0
 20
160.02
 30
7
 11
25.4
 21
160.02
 31
0
0
CIRCLE
8
JA
 10
10.16
 20
158.75
 30
0
 40
0.585
 39
  0
0
CIRCLE
8
JA
 10
10.16
 20
156.21
 30
0
 40
0.585
 39
  0
0
CIRCLE
8
JA
 10
10.16
 20
153.67
 30
0
 40
0.585
 39
  0
0
CIRCLE
8
JA
 10
10.16
 20
151.13
 30
0
 40
0.585
 39
  0
0
CIRCLE
8
JA
 10
10.16
 20
148.59
 30
0
 40
0.585
 39
  0
0
CIRCLE
8
JA
 10
10.16
 20
146.05
 30
0
 40
0.585
 39
  0
0
CIRCLE
8
JA
 10
10.16
 20
143.51
 30
0
 40
0.585
 39
  0
0
CIRCLE
8
JA
 10
10.16
 20
140.97
 30
0
 40
0.585
 39
  0
0
CIRCLE
8
JA
 10
10.16
 20
138.4301
 30
0
 40
0.585
 39
  0
0
CIRCLE
8
JA
 10
10.16
 20
135.8901
 30
0
 40
0.585
 39
  0
0
CIRCLE
8
JA
 10
10.16
 20
133.3501
 30
0
 40
0.585
 39
  0
0
CIRCLE
8
JA
 10
15.24
 20
133.3501
 30
0
 40
0.915
 39
  0
0
CIRCLE
8
JA
 10
17.78
 20
133.3501
 30
0
 40
0.915
 39
  0
0
CIRCLE
8
JA
 10
2.54
 20
130.8101
 30
0
 40
0.915
 39
  0
0
CIRCLE
8
JA
 10
10.16
 20
130.8101
 30
0
 40
0.585
 39
  0
0
CIRCLE
8
JA
 10
15.24
 20
130.8101
 30
0
 40
0.915
 39
  0
0
CIRCLE
8
JA
 10
17.78
 20
130.8101
 30
0
 40
0.915
 39
  0
0
CIRCLE
8
JA
 10
22.86
 20
130.8101
 30
0
 40
0.915
 39
  0
0
CIRCLE
8
JA
 10
10.16
 20
128.2701
 30
0
 40
0.585
 39
  0
0
CIRCLE
8
JA
 10
15.24
 20
128.2701
 30
0
 40
0.915
 39
  0
0
CIRCLE
8
JA
 10
17.78
 20
128.2701
 30
0
 40
0.915
 39
  0
0
CIRCLE
8
JA
 10
5.08
 20
125.7301
 30
0
 40
0.915
 39
  0
0
CIRCLE
8
JA
 10
10.16
 20
125.7301
 30
0
 40
0.585
 39
  0
0
CIRCLE
8
JA
 10
15.24
 20
125.7301
 30
0
 40
0.915
 39
  0
0
CIRCLE
8
JA
 10
17.78
 20
125.7301
 30
0
 40
0.915
 39
  0
0
CIRCLE
8
JA
 10
22.86
 20
125.7301
 30
0
 40
0.915
 39
  0
0
CIRCLE
8
JA
 10
10.16
 20
123.1901
 30
0
 40
0.585
 39
  0
0
CIRCLE
8
JA
 10
15.24
 20
123.1901
 30
0
 40
0.915
 39
  0
0
CIRCLE
8
JA
 10
17.78
 20
123.1901
 30
0
 40
0.915
 39
  0
0
CIRCLE
8
JA
 10
10.16
 20
120.6501
 30
0
 40
0.585
 39
  0
0
CIRCLE
8
JA
 10
15.24
 20
120.6501
 30
0
 40
0.915
 39
  0
0
CIRCLE
8
JA
 10
17.78
 20
120.6501
 30
0
 40
0.915
 39
  0
0
CIRCLE
8
JA
 10
10.16
 20
118.1101
 30
0
 40
0.585
 39
  0
0
CIRCLE
8
JA
 10
15.24
 20
118.1101
 30
0
 40
0.915
 39
  0
0
CIRCLE
8
JA
 10
17.78
 20
118.1101
 30
0
 40
0.915
 39
  0
0
CIRCLE
8
JA
 10
2.54
 20
115.5701
 30
0
 40
0.915
 39
  0
0
CIRCLE
8
JA
 10
10.16
 20
115.5701
 30
0
 40
0.585
 39
  0
0
CIRCLE
8
JA
 10
15.24
 20
115.5701
 30
0
 40
0.915
 39
  0
0
CIRCLE
8
JA
 10
17.78
 20
115.5701
 30
0
 40
0.915
 39
  0
0
CIRCLE
8
JA
 10
22.86
 20
115.5701
 30
0
 40
0.915
 39
  0
0
CIRCLE
8
JA
 10
2.54
 20
113.0301
 30
0
 40
0.915
 39
  0
0
CIRCLE
8
JA
 10
5.08
 20
113.0301
 30
0
 40
0.915
 39
  0
0
CIRCLE
8
JA
 10
7.62
 20
113.0301
 30
0
 40
0.915
 39
  0
0
CIRCLE
8
JA
 10
10.16
 20
113.0301
 30
0
 40
0.585
 39
  0
0
CIRCLE
8
JA
 10
15.24
 20
113.0301
 30
0
 40
0.915
 39
  0
0
CIRCLE
8
JA
 10
20.32
 20
113.0301
 30
0
 40
0.915
 39
  0
0
CIRCLE
8
JA
 10
22.86
 20
113.0301
 30
0
 40
0.915
 39
  0
0
CIRCLE
8
JA
 10
2.54
 20
110.4901
 30
0
 40
0.915
 39
  0
0
CIRCLE
8
JA
 10
10.16
 20
110.4901
 30
0
 40
0.585
 39
  0
0
CIRCLE
8
JA
 10
12.7
 20
110.4901
 30
0
 40
0.915
 39
  0
0
CIRCLE
8
JA
 10
20.32
 20
110.4901
 30
0
 40
0.915
 39
  0
0
CIRCLE
8
JA
 10
22.86
 20
110.4901
 30
0
 40
0.915
 39
  0
0
CIRCLE
8
JA
 10
5.08
 20
107.9501
 30
0
 40
0.915
 39
  0
0
CIRCLE
8
JA
 10
10.16
 20
107.9501
 30
0
 40
0.585
 39
  0
0
CIRCLE
8
JA
 10
15.24
 20
107.9501
 30
0
 40
0.915
 39
  0
0
CIRCLE
8
JA
 10
20.32
 20
107.9501
 30
0
 40
0.915
 39
  0
0
CIRCLE
8
JA
 10
22.86
 20
107.9501
 30
0
 40
0.915
 39
  0
0
CIRCLE
8
JA
 10
2.54
 20
105.4101
 30
0
 40
0.915
 39
  0
0
CIRCLE
8
JA
 10
7.62
 20
105.4101
 30
0
 40
0.915
 39
  0
0
CIRCLE
8
JA
 10
10.16
 20
105.4101
 30
0
 40
0.585
 39
  0
0
CIRCLE
8
JA
 10
20.32
 20
105.4101
 30
0
 40
0.915
 39
  0
0
CIRCLE
8
JA
 10
22.86
 20
105.4101
 30
0
 40
0.915
 39
  0
0
CIRCLE
8
JA
 10
10.16
 20
102.8701
 30
0
 40
0.585
 39
  0
0
CIRCLE
8
JA
 10
17.78
 20
102.8701
 30
0
 40
0.915
 39
  0
0
CIRCLE
8
JA
 10
22.86
 20
102.8701
 30
0
 40
0.915
 39
  0
0
CIRCLE
8
JA
 10
2.54
 20
100.3301
 30
0
 40
0.915
 39
  0
0
CIRCLE
8
JA
 10
7.62
 20
100.3301
 30
0
 40
0.915
 39
  0
0
CIRCLE
8
JA
 10
10.16
 20
100.3301
 30
0
 40
0.585
 39
  0
0
CIRCLE
8
JA
 10
20.32
 20
100.3301
 30
0
 40
0.915
 39
  0
0
CIRCLE
8
JA
 10
22.86
 20
100.3301
 30
0
 40
0.915
 39
  0
0
CIRCLE
8
JA
 10
5.08
 20
97.79007
 30
0
 40
0.915
 39
  0
0
CIRCLE
8
JA
 10
10.16
 20
97.79007
 30
0
 40
0.585
 39
  0
0
CIRCLE
8
JA
 10
15.24
 20
97.79007
 30
0
 40
0.915
 39
  0
0
CIRCLE
8
JA
 10
20.32
 20
97.79007
 30
0
 40
0.915
 39
  0
0
CIRCLE
8
JA
 10
22.86
 20
97.79007
 30
0
 40
0.915
 39
  0
0
CIRCLE
8
JA
 10
2.54
 20
95.25007
 30
0
 40
0.915
 39
  0
0
CIRCLE
8
JA
 10
10.16
 20
95.25007
 30
0
 40
0.585
 39
  0
0
CIRCLE
8
JA
 10
20.32
 20
95.25007
 30
0
 40
0.915
 39
  0
0
CIRCLE
8
JA
 10
2.54
 20
92.71007
 30
0
 40
0.915
 39
  0
0
CIRCLE
8
JA
 10
5.08
 20
92.71007
 30
0
 40
0.915
 39
  0
0
CIRCLE
8
JA
 10
10.16
 20
92.71007
 30
0
 40
0.585
 39
  0
0
CIRCLE
8
JA
 10
15.24
 20
92.71007
 30
0
 40
0.915
 39
  0
0
CIRCLE
8
JA
 10
20.32
 20
92.71007
 30
0
 40
0.915
 39
  0
0
CIRCLE
8
JA
 10
2.54
 20
90.17007
 30
0
 40
0.915
 39
  0
0
CIRCLE
8
JA
 10
7.62
 20
90.17007
 30
0
 40
0.915
 39
  0
0
CIRCLE
8
JA
 10
10.16
 20
90.17007
 30
0
 40
0.585
 39
  0
0
CIRCLE
8
JA
 10
20.32
 20
90.17007
 30
0
 40
0.915
 39
  0
0
CIRCLE
8
JA
 10
22.86
 20
90.17007
 30
0
 40
0.915
 39
  0
0
CIRCLE
8
JA
 10
10.16
 20
87.63007
 30
0
 40
0.585
 39
  0
0
CIRCLE
8
JA
 10
17.78
 20
87.63007
 30
0
 40
0.915
 39
  0
0
CIRCLE
8
JA
 10
22.86
 20
87.63007
 30
0
 40
0.915
 39
  0
0
CIRCLE
8
JA
 10
2.54
 20
85.09007
 30
0
 40
0.915
 39
  0
0
CIRCLE
8
JA
 10
7.62
 20
85.09007
 30
0
 40
0.915
 39
  0
0
CIRCLE
8
JA
 10
10.16
 20
85.09007
 30
0
 40
0.585
 39
  0
0
CIRCLE
8
JA
 10
15.24
 20
85.09007
 30
0
 40
0.915
 39
  0
0
CIRCLE
8
JA
 10
17.78
 20
85.09007
 30
0
 40
0.915
 39
  0
0
CIRCLE
8
JA
 10
2.54
 20
82.55006
 30
0
 40
0.915
 39
  0
0
CIRCLE
8
JA
 10
10.16
 20
82.55006
 30
0
 40
0.585
 39
  0
0
CIRCLE
8
JA
 10
20.32
 20
82.55006
 30
0
 40
0.915
 39
  0
0
CIRCLE
8
JA
 10
5.08
 20
80.01006
 30
0
 40
0.915
 39
  0
0
CIRCLE
8
JA
 10
7.62
 20
80.01006
 30
0
 40
0.915
 39
  0
0
CIRCLE
8
JA
 10
10.16
 20
80.01006
 30
0
 40
0.585
 39
  0
0
CIRCLE
8
JA
 10
20.32
 20
80.01006
 30
0
 40
0.915
 39
  0
0
CIRCLE
8
JA
 10
22.86
 20
80.01006
 30
0
 40
0.915
 39
  0
0
CIRCLE
8
JA
 10
2.54
 20
77.47006
 30
0
 40
0.915
 39
  0
0
CIRCLE
8
JA
 10
7.62
 20
77.47006
 30
0
 40
0.915
 39
  0
0
CIRCLE
8
JA
 10
10.16
 20
77.47006
 30
0
 40
0.585
 39
  0
0
CIRCLE
8
JA
 10
20.32
 20
77.47006
 30
0
 40
0.915
 39
  0
0
CIRCLE
8
JA
 10
22.86
 20
77.47006
 30
0
 40
0.915
 39
  0
0
CIRCLE
8
JA
 10
7.62
 20
74.93006
 30
0
 40
0.915
 39
  0
0
CIRCLE
8
JA
 10
10.16
 20
74.93006
 30
0
 40
0.585
 39
  0
0
CIRCLE
8
JA
 10
15.24
 20
74.93006
 30
0
 40
0.915
 39
  0
0
CIRCLE
8
JA
 10
17.78
 20
74.93006
 30
0
 40
0.915
 39
  0
0
CIRCLE
8
JA
 10
22.86
 20
74.93006
 30
0
 40
0.915
 39
  0
0
CIRCLE
8
JA
 10
5.08
 20
72.39006
 30
0
 40
0.915
 39
  0
0
CIRCLE
8
JA
 10
7.62
 20
72.39006
 30
0
 40
0.915
 39
  0
0
CIRCLE
8
JA
 10
10.16
 20
72.39006
 30
0
 40
0.585
 39
  0
0
CIRCLE
8
JA
 10
20.32
 20
72.39006
 30
0
 40
0.915
 39
  0
0
CIRCLE
8
JA
 10
22.86
 20
72.39006
 30
0
 40
0.915
 39
  0
0
CIRCLE
8
JA
 10
2.54
 20
69.85006
 30
0
 40
0.915
 39
  0
0
CIRCLE
8
JA
 10
10.16
 20
69.85006
 30
0
 40
0.585
 39
  0
0
CIRCLE
8
JA
 10
15.24
 20
69.85006
 30
0
 40
0.915
 39
  0
0
CIRCLE
8
JA
 10
17.78
 20
69.85006
 30
0
 40
0.915
 39
  0
0
CIRCLE
8
JA
 10
22.86
 20
69.85006
 30
0
 40
0.915
 39
  0
0
CIRCLE
8
JA
 10
2.54
 20
67.31006
 30
0
 40
0.915
 39
  0
0
CIRCLE
8
JA
 10
10.16
 20
67.31006
 30
0
 40
0.585
 39
  0
0
CIRCLE
8
JA
 10
20.32
 20
67.31006
 30
0
 40
0.915
 39
  0
0
CIRCLE
8
JA
 10
2.54
 20
64.77006
 30
0
 40
0.915
 39
  0
0
CIRCLE
8
JA
 10
5.08
 20
64.77006
 30
0
 40
0.915
 39
  0
0
CIRCLE
8
JA
 10
7.62
 20
64.77006
 30
0
 40
0.915
 39
  0
0
CIRCLE
8
JA
 10
10.16
 20
64.77006
 30
0
 40
0.585
 39
  0
0
CIRCLE
8
JA
 10
15.24
 20
64.77006
 30
0
 40
0.915
 39
  0
0
CIRCLE
8
JA
 10
17.78
 20
64.77006
 30
0
 40
0.915
 39
  0
0
CIRCLE
8
JA
 10
22.86
 20
64.77006
 30
0
 40
0.915
 39
  0
0
CIRCLE
8
JA
 10
5.08
 20
62.23006
 30
0
 40
0.915
 39
  0
0
CIRCLE
8
JA
 10
7.62
 20
62.23006
 30
0
 40
0.915
 39
  0
0
CIRCLE
8
JA
 10
10.16
 20
62.23006
 30
0
 40
0.585
 39
  0
0
CIRCLE
8
JA
 10
20.32
 20
62.23006
 30
0
 40
0.915
 39
  0
0
CIRCLE
8
JA
 10
22.86
 20
62.23006
 30
0
 40
0.915
 39
  0
0
CIRCLE
8
JA
 10
10.16
 20
59.69006
 30
0
 40
0.585
 39
  0
0
CIRCLE
8
JA
 10
15.24
 20
59.69006
 30
0
 40
0.915
 39
  0
0
CIRCLE
8
JA
 10
17.78
 20
59.69006
 30
0
 40
0.915
 39
  0
0
CIRCLE
8
JA
 10
10.16
 20
57.15005
 30
0
 40
0.585
 39
  0
0
CIRCLE
8
JA
 10
15.24
 20
57.15005
 30
0
 40
0.915
 39
  0
0
CIRCLE
8
JA
 10
17.78
 20
57.15005
 30
0
 40
0.915
 39
  0
0
CIRCLE
8
JA
 10
2.54
 20
54.61005
 30
0
 40
0.915
 39
  0
0
CIRCLE
8
JA
 10
5.08
 20
54.61005
 30
0
 40
0.915
 39
  0
0
CIRCLE
8
JA
 10
7.62
 20
54.61005
 30
0
 40
0.915
 39
  0
0
CIRCLE
8
JA
 10
10.16
 20
54.61005
 30
0
 40
0.585
 39
  0
0
CIRCLE
8
JA
 10
15.24
 20
54.61005
 30
0
 40
0.915
 39
  0
0
CIRCLE
8
JA
 10
17.78
 20
54.61005
 30
0
 40
0.915
 39
  0
0
CIRCLE
8
JA
 10
22.86
 20
54.61005
 30
0
 40
0.915
 39
  0
0
CIRCLE
8
JA
 10
5.08
 20
52.07005
 30
0
 40
0.915
 39
  0
0
CIRCLE
8
JA
 10
7.62
 20
52.07005
 30
0
 40
0.915
 39
  0
0
CIRCLE
8
JA
 10
10.16
 20
52.07005
 30
0
 40
0.585
 39
  0
0
CIRCLE
8
JA
 10
20.32
 20
52.07005
 30
0
 40
0.915
 39
  0
0
CIRCLE
8
JA
 10
22.86
 20
52.07005
 30
0
 40
0.915
 39
  0
0
CIRCLE
8
JA
 10
10.16
 20
49.53005
 30
0
 40
0.585
 39
  0
0
CIRCLE
8
JA
 10
15.24
 20
49.53005
 30
0
 40
0.915
 39
  0
0
CIRCLE
8
JA
 10
17.78
 20
49.53005
 30
0
 40
0.915
 39
  0
0
CIRCLE
8
JA
 10
10.16
 20
46.99005
 30
0
 40
0.585
 39
  0
0
CIRCLE
8
JA
 10
15.24
 20
46.99005
 30
0
 40
0.915
 39
  0
0
CIRCLE
8
JA
 10
17.78
 20
46.99005
 30
0
 40
0.915
 39
  0
0
CIRCLE
8
JA
 10
2.54
 20
44.45005
 30
0
 40
0.915
 39
  0
0
CIRCLE
8
JA
 10
10.16
 20
44.45005
 30
0
 40
0.585
 39
  0
0
CIRCLE
8
JA
 10
15.24
 20
44.45005
 30
0
 40
0.915
 39
  0
0
CIRCLE
8
JA
 10
17.78
 20
44.45005
 30
0
 40
0.915
 39
  0
0
CIRCLE
8
JA
 10
22.86
 20
44.45005
 30
0
 40
0.915
 39
  0
0
CIRCLE
8
JA
 10
2.54
 20
41.91005
 30
0
 40
0.915
 39
  0
0
CIRCLE
8
JA
 10
7.62
 20
41.91005
 30
0
 40
0.915
 39
  0
0
CIRCLE
8
JA
 10
10.16
 20
41.91005
 30
0
 40
0.585
 39
  0
0
CIRCLE
8
JA
 10
15.24
 20
41.91005
 30
0
 40
0.915
 39
  0
0
CIRCLE
8
JA
 10
17.78
 20
41.91005
 30
0
 40
0.915
 39
  0
0
CIRCLE
8
JA
 10
10.16
 20
39.37005
 30
0
 40
0.585
 39
  0
0
CIRCLE
8
JA
 10
15.24
 20
39.37005
 30
0
 40
0.915
 39
  0
0
CIRCLE
8
JA
 10
17.78
 20
39.37005
 30
0
 40
0.915
 39
  0
0
CIRCLE
8
JA
 10
2.54
 20
36.83005
 30
0
 40
0.915
 39
  0
0
CIRCLE
8
JA
 10
5.08
 20
36.83005
 30
0
 40
0.915
 39
  0
0
CIRCLE
8
JA
 10
10.16
 20
36.83005
 30
0
 40
0.585
 39
  0
0
CIRCLE
8
JA
 10
15.24
 20
36.83005
 30
0
 40
0.915
 39
  0
0
CIRCLE
8
JA
 10
17.78
 20
36.83005
 30
0
 40
0.915
 39
  0
0
CIRCLE
8
JA
 10
2.54
 20
34.29005
 30
0
 40
0.915
 39
  0
0
CIRCLE
8
JA
 10
10.16
 20
34.29005
 30
0
 40
0.585
 39
  0
0
CIRCLE
8
JA
 10
15.24
 20
34.29005
 30
0
 40
0.915
 39
  0
0
CIRCLE
8
JA
 10
17.78
 20
34.29005
 30
0
 40
0.915
 39
  0
0
CIRCLE
8
JA
 10
22.86
 20
34.29005
 30
0
 40
0.915
 39
  0
0
CIRCLE
8
JA
 10
2.54
 20
31.75005
 30
0
 40
0.915
 39
  0
0
CIRCLE
8
JA
 10
10.16
 20
31.75005
 30
0
 40
0.585
 39
  0
0
CIRCLE
8
JA
 10
12.7
 20
31.75005
 30
0
 40
0.915
 39
  0
0
CIRCLE
8
JA
 10
15.24
 20
31.75005
 30
0
 40
0.915
 39
  0
0
CIRCLE
8
JA
 10
17.78
 20
31.75005
 30
0
 40
0.915
 39
  0
0
CIRCLE
8
JA
 10
2.54
 20
29.21004
 30
0
 40
0.915
 39
  0
0
CIRCLE
8
JA
 10
7.62
 20
29.21004
 30
0
 40
0.915
 39
  0
0
CIRCLE
8
JA
 10
10.16
 20
29.21004
 30
0
 40
0.585
 39
  0
0
CIRCLE
8
JA
 10
12.7
 20
29.21004
 30
0
 40
0.915
 39
  0
0
CIRCLE
8
JA
 10
22.86
 20
29.21004
 30
0
 40
0.915
 39
  0
0
CIRCLE
8
JA
 10
5.08
 20
26.67004
 30
0
 40
0.915
 39
  0
0
CIRCLE
8
JA
 10
10.16
 20
26.67004
 30
0
 40
0.585
 39
  0
0
CIRCLE
8
JA
 10
12.7
 20
26.67004
 30
0
 40
0.915
 39
  0
0
CIRCLE
8
JA
 10
10.16
 20
24.13004
 30
0
 40
0.585
 39
  0
0
CIRCLE
8
JA
 10
10.16
 20
21.59004
 30
0
 40
0.585
 39
  0
0
CIRCLE
8
JA
 10
10.16
 20
19.05004
 30
0
 40
0.585
 39
  0
0
CIRCLE
8
JA
 10
10.16
 20
16.51004
 30
0
 40
0.585
 39
  0
0
CIRCLE
8
JA
 10
10.16
 20
13.97004
 30
0
 40
0.585
 39
  0
0
CIRCLE
8
JA
 10
10.16
 20
11.43004
 30
0
 40
0.585
 39
  0
0
CIRCLE
8
JA
 10
10.16
 20
8.89004
 30
0
 40
0.585
 39
  0
0
CIRCLE
8
JA
 10
10.16
 20
6.35004
 30
0
 40
0.585
 39
  0
0
CIRCLE
8
JA
 10
10.16
 20
3.81004
 30
0
 40
0.585
 39
  0
0
CIRCLE
8
JA
 10
10.16
 20
1.270041
 30
0
 40
0.585
 39
  0
0
ENDSEC
  0
EOF
