  0
SECTION
  2
HEADER
  9
$ACADVER
  1
AC1009
  9
$INSBASE
 10
0.0
 20
0.0
 30
0.0
  9
$EXTMIN
 10
  0
 20
  0
 30
  0
  9
$EXTMAX
 10
368
 20
326
 30
0.0
  9
$LIMMIN
 10
0.0
 20
0.0
  9
$LIMMAX
 10
100.0
 20
100.0
  9
$ORTHOMODE
 70
     1
  9
$DIMSCALE
 40
1
  9
$DIMSTYLE
  2
STANDARD
  9
$FILLETRAD
 40
0.0
  9
$PSLTSCALE
 70
     1
  0
ENDSEC
  0
SECTION
  2
TABLES
  0
TABLE
  2
VPORT
 70
     2
  0
VPORT
  2
*ACTIVE
 70
     0
 10
0.0
 20
0.0
 11
1.0
 21
1.0
 12
50.0
 22
50.0
 13
0.0
 23
0.0
 14
1.0
 24
1.0
 15
0.0
 25
0.0
 16
0.0
 26
0.0
 36
1.0
 17
0.0
 27
0.0
 37
0.0
 40
100.0
 41
1.55
 42
50.0
 43
0.0
 44
0.0
 50
0.0
 51
0.0
 71
     0
 72
   100
 73
     1
 74
     1
 75
     0
 76
     0
 77
     0
 78
     0
  0
ENDTAB
  0
TABLE
  2
LTYPE
 70
     1
  0
LTYPE
  2
CONTINUOUS
  70
     0
  3
Solid Line
 72
    65
 73
     0
 40
0.0
  0
ENDTAB
  0
TABLE
  2
LAYER
 70
     3
  0
LAYER
  2
0
 70
     0
 62
     7
  6
CONTINUOUS
  0
LAYER
  2
JA
 70
     0
 62
     7
  6
CONTINUOUS
  0
LAYER
  2
DEFPOINTS
 70
     0
 62
     7
 6
CONTINUOUS
  0
ENDTAB
  0
TABLE
  2
VIEW
 70
     0
  0
ENDTAB
  0
TABLE
  2
DIMSTYLE
 70
     1
  0
DIMSTYLE
  2
STANDARD
 70
     0
  3

  4

  5

  6

  7

 40
1.0
 41
0.125
 42
0.04
 43
0.25
 44
0.125
 45
0.0
 46
0.0
 47
0.0
 48
0.0
140
0.125
141
0.06
142
0.0
143
25.4
144
1.0
145
0.0
146
1.0
147
0.09
 71
     0
 72
     0
 73
     1
 74
     1
 75
     0
 76
     0
 77
     0
 78
     0
170
     0
171
     2
172
     0
173
     0
174
     0
175
     0
176
     0
177
     0
178
     0
  0
ENDTAB
  0
ENDSEC
  0
SECTION
  2
BLOCKS
  0
ENDSEC
  0
SECTION
  2
ENTITIES
  0
LINE
8
JA
 10
0
 20
0
 30
0
 11
0
 21
518.16
 31
0
0
LINE
8
JA
 10
25.4
 20
0
 30
0
 11
25.4
 21
518.16
 31
0
0
LINE
8
JA
 10
0
 20
518.16
 30
0
 11
25.4
 21
518.16
 31
0
0
LINE
8
JA
 10
0
 20
0
 30
0
 11
25.4
 21
0
 31
0
0
LINE
8
JA
 10
0
 20
518.16
 30
7
 11
25.4
 21
518.16
 31
0
0
CIRCLE
8
JA
 10
12.7
 20
516.89
 30
0
 40
0.585
 39
  0
0
CIRCLE
8
JA
 10
12.7
 20
514.35
 30
0
 40
0.585
 39
  0
0
CIRCLE
8
JA
 10
12.7
 20
511.81
 30
0
 40
0.585
 39
  0
0
CIRCLE
8
JA
 10
12.7
 20
509.27
 30
0
 40
0.585
 39
  0
0
CIRCLE
8
JA
 10
12.7
 20
506.7299
 30
0
 40
0.585
 39
  0
0
CIRCLE
8
JA
 10
12.7
 20
504.1899
 30
0
 40
0.585
 39
  0
0
CIRCLE
8
JA
 10
12.7
 20
501.6499
 30
0
 40
0.585
 39
  0
0
CIRCLE
8
JA
 10
12.7
 20
499.1099
 30
0
 40
0.585
 39
  0
0
CIRCLE
8
JA
 10
12.7
 20
496.5699
 30
0
 40
0.585
 39
  0
0
CIRCLE
8
JA
 10
12.7
 20
494.0299
 30
0
 40
0.585
 39
  0
0
CIRCLE
8
JA
 10
12.7
 20
491.4899
 30
0
 40
0.585
 39
  0
0
CIRCLE
8
JA
 10
15.24
 20
491.4899
 30
0
 40
0.915
 39
  0
0
CIRCLE
8
JA
 10
17.78
 20
491.4899
 30
0
 40
0.915
 39
  0
0
CIRCLE
8
JA
 10
2.54
 20
488.9499
 30
0
 40
0.915
 39
  0
0
CIRCLE
8
JA
 10
12.7
 20
488.9499
 30
0
 40
0.585
 39
  0
0
CIRCLE
8
JA
 10
15.24
 20
488.9499
 30
0
 40
0.915
 39
  0
0
CIRCLE
8
JA
 10
17.78
 20
488.9499
 30
0
 40
0.915
 39
  0
0
CIRCLE
8
JA
 10
22.86
 20
488.9499
 30
0
 40
0.915
 39
  0
0
CIRCLE
8
JA
 10
12.7
 20
486.4099
 30
0
 40
0.585
 39
  0
0
CIRCLE
8
JA
 10
15.24
 20
486.4099
 30
0
 40
0.915
 39
  0
0
CIRCLE
8
JA
 10
17.78
 20
486.4099
 30
0
 40
0.915
 39
  0
0
CIRCLE
8
JA
 10
5.08
 20
483.8699
 30
0
 40
0.915
 39
  0
0
CIRCLE
8
JA
 10
12.7
 20
483.8699
 30
0
 40
0.585
 39
  0
0
CIRCLE
8
JA
 10
15.24
 20
483.8699
 30
0
 40
0.915
 39
  0
0
CIRCLE
8
JA
 10
17.78
 20
483.8699
 30
0
 40
0.915
 39
  0
0
CIRCLE
8
JA
 10
22.86
 20
483.8699
 30
0
 40
0.915
 39
  0
0
CIRCLE
8
JA
 10
12.7
 20
481.3299
 30
0
 40
0.585
 39
  0
0
CIRCLE
8
JA
 10
15.24
 20
481.3299
 30
0
 40
0.915
 39
  0
0
CIRCLE
8
JA
 10
17.78
 20
481.3299
 30
0
 40
0.915
 39
  0
0
CIRCLE
8
JA
 10
2.54
 20
478.7899
 30
0
 40
0.915
 39
  0
0
CIRCLE
8
JA
 10
12.7
 20
478.7899
 30
0
 40
0.585
 39
  0
0
CIRCLE
8
JA
 10
15.24
 20
478.7899
 30
0
 40
0.915
 39
  0
0
CIRCLE
8
JA
 10
17.78
 20
478.7899
 30
0
 40
0.915
 39
  0
0
CIRCLE
8
JA
 10
22.86
 20
478.7899
 30
0
 40
0.915
 39
  0
0
CIRCLE
8
JA
 10
12.7
 20
476.2498
 30
0
 40
0.585
 39
  0
0
CIRCLE
8
JA
 10
15.24
 20
476.2498
 30
0
 40
0.915
 39
  0
0
CIRCLE
8
JA
 10
17.78
 20
476.2498
 30
0
 40
0.915
 39
  0
0
CIRCLE
8
JA
 10
7.62
 20
473.7098
 30
0
 40
0.915
 39
  0
0
CIRCLE
8
JA
 10
12.7
 20
473.7098
 30
0
 40
0.585
 39
  0
0
CIRCLE
8
JA
 10
15.24
 20
473.7098
 30
0
 40
0.915
 39
  0
0
CIRCLE
8
JA
 10
17.78
 20
473.7098
 30
0
 40
0.915
 39
  0
0
CIRCLE
8
JA
 10
22.86
 20
473.7098
 30
0
 40
0.915
 39
  0
0
CIRCLE
8
JA
 10
7.62
 20
471.1698
 30
0
 40
0.915
 39
  0
0
CIRCLE
8
JA
 10
12.7
 20
471.1698
 30
0
 40
0.585
 39
  0
0
CIRCLE
8
JA
 10
15.24
 20
471.1698
 30
0
 40
0.915
 39
  0
0
CIRCLE
8
JA
 10
17.78
 20
471.1698
 30
0
 40
0.915
 39
  0
0
CIRCLE
8
JA
 10
22.86
 20
471.1698
 30
0
 40
0.915
 39
  0
0
CIRCLE
8
JA
 10
5.08
 20
468.6298
 30
0
 40
0.915
 39
  0
0
CIRCLE
8
JA
 10
7.62
 20
468.6298
 30
0
 40
0.915
 39
  0
0
CIRCLE
8
JA
 10
12.7
 20
468.6298
 30
0
 40
0.585
 39
  0
0
CIRCLE
8
JA
 10
15.24
 20
468.6298
 30
0
 40
0.915
 39
  0
0
CIRCLE
8
JA
 10
17.78
 20
468.6298
 30
0
 40
0.915
 39
  0
0
CIRCLE
8
JA
 10
2.54
 20
466.0898
 30
0
 40
0.915
 39
  0
0
CIRCLE
8
JA
 10
7.62
 20
466.0898
 30
0
 40
0.915
 39
  0
0
CIRCLE
8
JA
 10
12.7
 20
466.0898
 30
0
 40
0.585
 39
  0
0
CIRCLE
8
JA
 10
20.32
 20
466.0898
 30
0
 40
0.915
 39
  0
0
CIRCLE
8
JA
 10
22.86
 20
466.0898
 30
0
 40
0.915
 39
  0
0
CIRCLE
8
JA
 10
5.08
 20
463.5498
 30
0
 40
0.915
 39
  0
0
CIRCLE
8
JA
 10
7.62
 20
463.5498
 30
0
 40
0.915
 39
  0
0
CIRCLE
8
JA
 10
12.7
 20
463.5498
 30
0
 40
0.585
 39
  0
0
CIRCLE
8
JA
 10
15.24
 20
463.5498
 30
0
 40
0.915
 39
  0
0
CIRCLE
8
JA
 10
20.32
 20
463.5498
 30
0
 40
0.915
 39
  0
0
CIRCLE
8
JA
 10
2.54
 20
461.0098
 30
0
 40
0.915
 39
  0
0
CIRCLE
8
JA
 10
10.16
 20
461.0098
 30
0
 40
0.915
 39
  0
0
CIRCLE
8
JA
 10
12.7
 20
461.0098
 30
0
 40
0.585
 39
  0
0
CIRCLE
8
JA
 10
20.32
 20
461.0098
 30
0
 40
0.915
 39
  0
0
CIRCLE
8
JA
 10
22.86
 20
461.0098
 30
0
 40
0.915
 39
  0
0
CIRCLE
8
JA
 10
7.62
 20
458.4698
 30
0
 40
0.915
 39
  0
0
CIRCLE
8
JA
 10
10.16
 20
458.4698
 30
0
 40
0.915
 39
  0
0
CIRCLE
8
JA
 10
12.7
 20
458.4698
 30
0
 40
0.585
 39
  0
0
CIRCLE
8
JA
 10
20.32
 20
458.4698
 30
0
 40
0.915
 39
  0
0
CIRCLE
8
JA
 10
22.86
 20
458.4698
 30
0
 40
0.915
 39
  0
0
CIRCLE
8
JA
 10
12.7
 20
455.9298
 30
0
 40
0.585
 39
  0
0
CIRCLE
8
JA
 10
17.78
 20
455.9298
 30
0
 40
0.915
 39
  0
0
CIRCLE
8
JA
 10
22.86
 20
455.9298
 30
0
 40
0.915
 39
  0
0
CIRCLE
8
JA
 10
2.54
 20
453.3898
 30
0
 40
0.915
 39
  0
0
CIRCLE
8
JA
 10
7.62
 20
453.3898
 30
0
 40
0.915
 39
  0
0
CIRCLE
8
JA
 10
10.16
 20
453.3898
 30
0
 40
0.915
 39
  0
0
CIRCLE
8
JA
 10
12.7
 20
453.3898
 30
0
 40
0.585
 39
  0
0
CIRCLE
8
JA
 10
20.32
 20
453.3898
 30
0
 40
0.915
 39
  0
0
CIRCLE
8
JA
 10
2.54
 20
450.8498
 30
0
 40
0.915
 39
  0
0
CIRCLE
8
JA
 10
5.08
 20
450.8498
 30
0
 40
0.915
 39
  0
0
CIRCLE
8
JA
 10
7.62
 20
450.8498
 30
0
 40
0.915
 39
  0
0
CIRCLE
8
JA
 10
10.16
 20
450.8498
 30
0
 40
0.915
 39
  0
0
CIRCLE
8
JA
 10
12.7
 20
450.8498
 30
0
 40
0.585
 39
  0
0
CIRCLE
8
JA
 10
20.32
 20
450.8498
 30
0
 40
0.915
 39
  0
0
CIRCLE
8
JA
 10
22.86
 20
450.8498
 30
0
 40
0.915
 39
  0
0
CIRCLE
8
JA
 10
2.54
 20
448.3098
 30
0
 40
0.915
 39
  0
0
CIRCLE
8
JA
 10
5.08
 20
448.3098
 30
0
 40
0.915
 39
  0
0
CIRCLE
8
JA
 10
7.62
 20
448.3098
 30
0
 40
0.915
 39
  0
0
CIRCLE
8
JA
 10
12.7
 20
448.3098
 30
0
 40
0.585
 39
  0
0
CIRCLE
8
JA
 10
20.32
 20
448.3098
 30
0
 40
0.915
 39
  0
0
CIRCLE
8
JA
 10
12.7
 20
445.7697
 30
0
 40
0.585
 39
  0
0
CIRCLE
8
JA
 10
17.78
 20
445.7697
 30
0
 40
0.915
 39
  0
0
CIRCLE
8
JA
 10
22.86
 20
445.7697
 30
0
 40
0.915
 39
  0
0
CIRCLE
8
JA
 10
12.7
 20
443.2297
 30
0
 40
0.585
 39
  0
0
CIRCLE
8
JA
 10
17.78
 20
443.2297
 30
0
 40
0.915
 39
  0
0
CIRCLE
8
JA
 10
22.86
 20
443.2297
 30
0
 40
0.915
 39
  0
0
CIRCLE
8
JA
 10
12.7
 20
440.6897
 30
0
 40
0.585
 39
  0
0
CIRCLE
8
JA
 10
17.78
 20
440.6897
 30
0
 40
0.915
 39
  0
0
CIRCLE
8
JA
 10
22.86
 20
440.6897
 30
0
 40
0.915
 39
  0
0
CIRCLE
8
JA
 10
12.7
 20
438.1497
 30
0
 40
0.585
 39
  0
0
CIRCLE
8
JA
 10
17.78
 20
438.1497
 30
0
 40
0.915
 39
  0
0
CIRCLE
8
JA
 10
22.86
 20
438.1497
 30
0
 40
0.915
 39
  0
0
CIRCLE
8
JA
 10
12.7
 20
435.6097
 30
0
 40
0.585
 39
  0
0
CIRCLE
8
JA
 10
17.78
 20
435.6097
 30
0
 40
0.915
 39
  0
0
CIRCLE
8
JA
 10
22.86
 20
435.6097
 30
0
 40
0.915
 39
  0
0
CIRCLE
8
JA
 10
7.62
 20
433.0697
 30
0
 40
0.915
 39
  0
0
CIRCLE
8
JA
 10
12.7
 20
433.0697
 30
0
 40
0.585
 39
  0
0
CIRCLE
8
JA
 10
20.32
 20
433.0697
 30
0
 40
0.915
 39
  0
0
CIRCLE
8
JA
 10
2.54
 20
430.5297
 30
0
 40
0.915
 39
  0
0
CIRCLE
8
JA
 10
12.7
 20
430.5297
 30
0
 40
0.585
 39
  0
0
CIRCLE
8
JA
 10
15.24
 20
430.5297
 30
0
 40
0.915
 39
  0
0
CIRCLE
8
JA
 10
17.78
 20
430.5297
 30
0
 40
0.915
 39
  0
0
CIRCLE
8
JA
 10
22.86
 20
430.5297
 30
0
 40
0.915
 39
  0
0
CIRCLE
8
JA
 10
2.54
 20
427.9897
 30
0
 40
0.915
 39
  0
0
CIRCLE
8
JA
 10
12.7
 20
427.9897
 30
0
 40
0.585
 39
  0
0
CIRCLE
8
JA
 10
20.32
 20
427.9897
 30
0
 40
0.915
 39
  0
0
CIRCLE
8
JA
 10
5.08
 20
425.4497
 30
0
 40
0.915
 39
  0
0
CIRCLE
8
JA
 10
12.7
 20
425.4497
 30
0
 40
0.585
 39
  0
0
CIRCLE
8
JA
 10
20.32
 20
425.4497
 30
0
 40
0.915
 39
  0
0
CIRCLE
8
JA
 10
12.7
 20
422.9097
 30
0
 40
0.585
 39
  0
0
CIRCLE
8
JA
 10
15.24
 20
422.9097
 30
0
 40
0.915
 39
  0
0
CIRCLE
8
JA
 10
17.78
 20
422.9097
 30
0
 40
0.915
 39
  0
0
CIRCLE
8
JA
 10
2.54
 20
420.3697
 30
0
 40
0.915
 39
  0
0
CIRCLE
8
JA
 10
12.7
 20
420.3697
 30
0
 40
0.585
 39
  0
0
CIRCLE
8
JA
 10
15.24
 20
420.3697
 30
0
 40
0.915
 39
  0
0
CIRCLE
8
JA
 10
17.78
 20
420.3697
 30
0
 40
0.915
 39
  0
0
CIRCLE
8
JA
 10
22.86
 20
420.3697
 30
0
 40
0.915
 39
  0
0
CIRCLE
8
JA
 10
2.54
 20
417.8297
 30
0
 40
0.915
 39
  0
0
CIRCLE
8
JA
 10
12.7
 20
417.8297
 30
0
 40
0.585
 39
  0
0
CIRCLE
8
JA
 10
15.24
 20
417.8297
 30
0
 40
0.915
 39
  0
0
CIRCLE
8
JA
 10
17.78
 20
417.8297
 30
0
 40
0.915
 39
  0
0
CIRCLE
8
JA
 10
22.86
 20
417.8297
 30
0
 40
0.915
 39
  0
0
CIRCLE
8
JA
 10
2.54
 20
415.2896
 30
0
 40
0.915
 39
  0
0
CIRCLE
8
JA
 10
5.08
 20
415.2896
 30
0
 40
0.915
 39
  0
0
CIRCLE
8
JA
 10
12.7
 20
415.2896
 30
0
 40
0.585
 39
  0
0
CIRCLE
8
JA
 10
20.32
 20
415.2896
 30
0
 40
0.915
 39
  0
0
CIRCLE
8
JA
 10
22.86
 20
415.2896
 30
0
 40
0.915
 39
  0
0
CIRCLE
8
JA
 10
2.54
 20
412.7496
 30
0
 40
0.915
 39
  0
0
CIRCLE
8
JA
 10
12.7
 20
412.7496
 30
0
 40
0.585
 39
  0
0
CIRCLE
8
JA
 10
20.32
 20
412.7496
 30
0
 40
0.915
 39
  0
0
CIRCLE
8
JA
 10
2.54
 20
410.2096
 30
0
 40
0.915
 39
  0
0
CIRCLE
8
JA
 10
12.7
 20
410.2096
 30
0
 40
0.585
 39
  0
0
CIRCLE
8
JA
 10
15.24
 20
410.2096
 30
0
 40
0.915
 39
  0
0
CIRCLE
8
JA
 10
17.78
 20
410.2096
 30
0
 40
0.915
 39
  0
0
CIRCLE
8
JA
 10
22.86
 20
410.2096
 30
0
 40
0.915
 39
  0
0
CIRCLE
8
JA
 10
2.54
 20
407.6696
 30
0
 40
0.915
 39
  0
0
CIRCLE
8
JA
 10
12.7
 20
407.6696
 30
0
 40
0.585
 39
  0
0
CIRCLE
8
JA
 10
15.24
 20
407.6696
 30
0
 40
0.915
 39
  0
0
CIRCLE
8
JA
 10
17.78
 20
407.6696
 30
0
 40
0.915
 39
  0
0
CIRCLE
8
JA
 10
22.86
 20
407.6696
 30
0
 40
0.915
 39
  0
0
CIRCLE
8
JA
 10
2.54
 20
405.1296
 30
0
 40
0.915
 39
  0
0
CIRCLE
8
JA
 10
5.08
 20
405.1296
 30
0
 40
0.915
 39
  0
0
CIRCLE
8
JA
 10
12.7
 20
405.1296
 30
0
 40
0.585
 39
  0
0
CIRCLE
8
JA
 10
20.32
 20
405.1296
 30
0
 40
0.915
 39
  0
0
CIRCLE
8
JA
 10
22.86
 20
405.1296
 30
0
 40
0.915
 39
  0
0
CIRCLE
8
JA
 10
7.62
 20
402.5896
 30
0
 40
0.915
 39
  0
0
CIRCLE
8
JA
 10
12.7
 20
402.5896
 30
0
 40
0.585
 39
  0
0
CIRCLE
8
JA
 10
20.32
 20
402.5896
 30
0
 40
0.915
 39
  0
0
CIRCLE
8
JA
 10
12.7
 20
400.0496
 30
0
 40
0.585
 39
  0
0
CIRCLE
8
JA
 10
15.24
 20
400.0496
 30
0
 40
0.915
 39
  0
0
CIRCLE
8
JA
 10
17.78
 20
400.0496
 30
0
 40
0.915
 39
  0
0
CIRCLE
8
JA
 10
12.7
 20
397.5096
 30
0
 40
0.585
 39
  0
0
CIRCLE
8
JA
 10
15.24
 20
397.5096
 30
0
 40
0.915
 39
  0
0
CIRCLE
8
JA
 10
17.78
 20
397.5096
 30
0
 40
0.915
 39
  0
0
CIRCLE
8
JA
 10
7.62
 20
394.9696
 30
0
 40
0.915
 39
  0
0
CIRCLE
8
JA
 10
12.7
 20
394.9696
 30
0
 40
0.585
 39
  0
0
CIRCLE
8
JA
 10
20.32
 20
394.9696
 30
0
 40
0.915
 39
  0
0
CIRCLE
8
JA
 10
2.54
 20
392.4296
 30
0
 40
0.915
 39
  0
0
CIRCLE
8
JA
 10
12.7
 20
392.4296
 30
0
 40
0.585
 39
  0
0
CIRCLE
8
JA
 10
20.32
 20
392.4296
 30
0
 40
0.915
 39
  0
0
CIRCLE
8
JA
 10
7.62
 20
389.8896
 30
0
 40
0.915
 39
  0
0
CIRCLE
8
JA
 10
12.7
 20
389.8896
 30
0
 40
0.585
 39
  0
0
CIRCLE
8
JA
 10
20.32
 20
389.8896
 30
0
 40
0.915
 39
  0
0
CIRCLE
8
JA
 10
12.7
 20
387.3495
 30
0
 40
0.585
 39
  0
0
CIRCLE
8
JA
 10
15.24
 20
387.3495
 30
0
 40
0.915
 39
  0
0
CIRCLE
8
JA
 10
17.78
 20
387.3495
 30
0
 40
0.915
 39
  0
0
CIRCLE
8
JA
 10
2.54
 20
384.8095
 30
0
 40
0.915
 39
  0
0
CIRCLE
8
JA
 10
5.08
 20
384.8095
 30
0
 40
0.915
 39
  0
0
CIRCLE
8
JA
 10
12.7
 20
384.8095
 30
0
 40
0.585
 39
  0
0
CIRCLE
8
JA
 10
15.24
 20
384.8095
 30
0
 40
0.915
 39
  0
0
CIRCLE
8
JA
 10
17.78
 20
384.8095
 30
0
 40
0.915
 39
  0
0
CIRCLE
8
JA
 10
2.54
 20
382.2695
 30
0
 40
0.915
 39
  0
0
CIRCLE
8
JA
 10
12.7
 20
382.2695
 30
0
 40
0.585
 39
  0
0
CIRCLE
8
JA
 10
15.24
 20
382.2695
 30
0
 40
0.915
 39
  0
0
CIRCLE
8
JA
 10
17.78
 20
382.2695
 30
0
 40
0.915
 39
  0
0
CIRCLE
8
JA
 10
22.86
 20
382.2695
 30
0
 40
0.915
 39
  0
0
CIRCLE
8
JA
 10
2.54
 20
379.7295
 30
0
 40
0.915
 39
  0
0
CIRCLE
8
JA
 10
10.16
 20
379.7295
 30
0
 40
0.915
 39
  0
0
CIRCLE
8
JA
 10
12.7
 20
379.7295
 30
0
 40
0.585
 39
  0
0
CIRCLE
8
JA
 10
15.24
 20
379.7295
 30
0
 40
0.915
 39
  0
0
CIRCLE
8
JA
 10
17.78
 20
379.7295
 30
0
 40
0.915
 39
  0
0
CIRCLE
8
JA
 10
5.08
 20
377.1895
 30
0
 40
0.915
 39
  0
0
CIRCLE
8
JA
 10
10.16
 20
377.1895
 30
0
 40
0.915
 39
  0
0
CIRCLE
8
JA
 10
12.7
 20
377.1895
 30
0
 40
0.585
 39
  0
0
CIRCLE
8
JA
 10
12.7
 20
374.6495
 30
0
 40
0.585
 39
  0
0
CIRCLE
8
JA
 10
15.24
 20
374.6495
 30
0
 40
0.915
 39
  0
0
CIRCLE
8
JA
 10
17.78
 20
374.6495
 30
0
 40
0.915
 39
  0
0
CIRCLE
8
JA
 10
2.54
 20
372.1095
 30
0
 40
0.915
 39
  0
0
CIRCLE
8
JA
 10
12.7
 20
372.1095
 30
0
 40
0.585
 39
  0
0
CIRCLE
8
JA
 10
15.24
 20
372.1095
 30
0
 40
0.915
 39
  0
0
CIRCLE
8
JA
 10
17.78
 20
372.1095
 30
0
 40
0.915
 39
  0
0
CIRCLE
8
JA
 10
22.86
 20
372.1095
 30
0
 40
0.915
 39
  0
0
CIRCLE
8
JA
 10
12.7
 20
369.5695
 30
0
 40
0.585
 39
  0
0
CIRCLE
8
JA
 10
15.24
 20
369.5695
 30
0
 40
0.915
 39
  0
0
CIRCLE
8
JA
 10
17.78
 20
369.5695
 30
0
 40
0.915
 39
  0
0
CIRCLE
8
JA
 10
5.08
 20
367.0295
 30
0
 40
0.915
 39
  0
0
CIRCLE
8
JA
 10
12.7
 20
367.0295
 30
0
 40
0.585
 39
  0
0
CIRCLE
8
JA
 10
15.24
 20
367.0295
 30
0
 40
0.915
 39
  0
0
CIRCLE
8
JA
 10
17.78
 20
367.0295
 30
0
 40
0.915
 39
  0
0
CIRCLE
8
JA
 10
22.86
 20
367.0295
 30
0
 40
0.915
 39
  0
0
CIRCLE
8
JA
 10
12.7
 20
364.4895
 30
0
 40
0.585
 39
  0
0
CIRCLE
8
JA
 10
15.24
 20
364.4895
 30
0
 40
0.915
 39
  0
0
CIRCLE
8
JA
 10
17.78
 20
364.4895
 30
0
 40
0.915
 39
  0
0
CIRCLE
8
JA
 10
2.54
 20
361.9495
 30
0
 40
0.915
 39
  0
0
CIRCLE
8
JA
 10
12.7
 20
361.9495
 30
0
 40
0.585
 39
  0
0
CIRCLE
8
JA
 10
15.24
 20
361.9495
 30
0
 40
0.915
 39
  0
0
CIRCLE
8
JA
 10
17.78
 20
361.9495
 30
0
 40
0.915
 39
  0
0
CIRCLE
8
JA
 10
22.86
 20
361.9495
 30
0
 40
0.915
 39
  0
0
CIRCLE
8
JA
 10
12.7
 20
359.4095
 30
0
 40
0.585
 39
  0
0
CIRCLE
8
JA
 10
15.24
 20
359.4095
 30
0
 40
0.915
 39
  0
0
CIRCLE
8
JA
 10
17.78
 20
359.4095
 30
0
 40
0.915
 39
  0
0
CIRCLE
8
JA
 10
7.62
 20
356.8694
 30
0
 40
0.915
 39
  0
0
CIRCLE
8
JA
 10
12.7
 20
356.8694
 30
0
 40
0.585
 39
  0
0
CIRCLE
8
JA
 10
15.24
 20
356.8694
 30
0
 40
0.915
 39
  0
0
CIRCLE
8
JA
 10
17.78
 20
356.8694
 30
0
 40
0.915
 39
  0
0
CIRCLE
8
JA
 10
22.86
 20
356.8694
 30
0
 40
0.915
 39
  0
0
CIRCLE
8
JA
 10
7.62
 20
354.3294
 30
0
 40
0.915
 39
  0
0
CIRCLE
8
JA
 10
12.7
 20
354.3294
 30
0
 40
0.585
 39
  0
0
CIRCLE
8
JA
 10
15.24
 20
354.3294
 30
0
 40
0.915
 39
  0
0
CIRCLE
8
JA
 10
17.78
 20
354.3294
 30
0
 40
0.915
 39
  0
0
CIRCLE
8
JA
 10
22.86
 20
354.3294
 30
0
 40
0.915
 39
  0
0
CIRCLE
8
JA
 10
5.08
 20
351.7894
 30
0
 40
0.915
 39
  0
0
CIRCLE
8
JA
 10
7.62
 20
351.7894
 30
0
 40
0.915
 39
  0
0
CIRCLE
8
JA
 10
12.7
 20
351.7894
 30
0
 40
0.585
 39
  0
0
CIRCLE
8
JA
 10
15.24
 20
351.7894
 30
0
 40
0.915
 39
  0
0
CIRCLE
8
JA
 10
17.78
 20
351.7894
 30
0
 40
0.915
 39
  0
0
CIRCLE
8
JA
 10
2.54
 20
349.2494
 30
0
 40
0.915
 39
  0
0
CIRCLE
8
JA
 10
7.62
 20
349.2494
 30
0
 40
0.915
 39
  0
0
CIRCLE
8
JA
 10
12.7
 20
349.2494
 30
0
 40
0.585
 39
  0
0
CIRCLE
8
JA
 10
20.32
 20
349.2494
 30
0
 40
0.915
 39
  0
0
CIRCLE
8
JA
 10
22.86
 20
349.2494
 30
0
 40
0.915
 39
  0
0
CIRCLE
8
JA
 10
5.08
 20
346.7094
 30
0
 40
0.915
 39
  0
0
CIRCLE
8
JA
 10
7.62
 20
346.7094
 30
0
 40
0.915
 39
  0
0
CIRCLE
8
JA
 10
12.7
 20
346.7094
 30
0
 40
0.585
 39
  0
0
CIRCLE
8
JA
 10
15.24
 20
346.7094
 30
0
 40
0.915
 39
  0
0
CIRCLE
8
JA
 10
20.32
 20
346.7094
 30
0
 40
0.915
 39
  0
0
CIRCLE
8
JA
 10
2.54
 20
344.1694
 30
0
 40
0.915
 39
  0
0
CIRCLE
8
JA
 10
10.16
 20
344.1694
 30
0
 40
0.915
 39
  0
0
CIRCLE
8
JA
 10
12.7
 20
344.1694
 30
0
 40
0.585
 39
  0
0
CIRCLE
8
JA
 10
20.32
 20
344.1694
 30
0
 40
0.915
 39
  0
0
CIRCLE
8
JA
 10
22.86
 20
344.1694
 30
0
 40
0.915
 39
  0
0
CIRCLE
8
JA
 10
7.62
 20
341.6294
 30
0
 40
0.915
 39
  0
0
CIRCLE
8
JA
 10
10.16
 20
341.6294
 30
0
 40
0.915
 39
  0
0
CIRCLE
8
JA
 10
12.7
 20
341.6294
 30
0
 40
0.585
 39
  0
0
CIRCLE
8
JA
 10
20.32
 20
341.6294
 30
0
 40
0.915
 39
  0
0
CIRCLE
8
JA
 10
22.86
 20
341.6294
 30
0
 40
0.915
 39
  0
0
CIRCLE
8
JA
 10
12.7
 20
339.0894
 30
0
 40
0.585
 39
  0
0
CIRCLE
8
JA
 10
17.78
 20
339.0894
 30
0
 40
0.915
 39
  0
0
CIRCLE
8
JA
 10
22.86
 20
339.0894
 30
0
 40
0.915
 39
  0
0
CIRCLE
8
JA
 10
2.54
 20
336.5494
 30
0
 40
0.915
 39
  0
0
CIRCLE
8
JA
 10
7.62
 20
336.5494
 30
0
 40
0.915
 39
  0
0
CIRCLE
8
JA
 10
10.16
 20
336.5494
 30
0
 40
0.915
 39
  0
0
CIRCLE
8
JA
 10
12.7
 20
336.5494
 30
0
 40
0.585
 39
  0
0
CIRCLE
8
JA
 10
20.32
 20
336.5494
 30
0
 40
0.915
 39
  0
0
CIRCLE
8
JA
 10
2.54
 20
334.0094
 30
0
 40
0.915
 39
  0
0
CIRCLE
8
JA
 10
5.08
 20
334.0094
 30
0
 40
0.915
 39
  0
0
CIRCLE
8
JA
 10
7.62
 20
334.0094
 30
0
 40
0.915
 39
  0
0
CIRCLE
8
JA
 10
10.16
 20
334.0094
 30
0
 40
0.915
 39
  0
0
CIRCLE
8
JA
 10
12.7
 20
334.0094
 30
0
 40
0.585
 39
  0
0
CIRCLE
8
JA
 10
20.32
 20
334.0094
 30
0
 40
0.915
 39
  0
0
CIRCLE
8
JA
 10
22.86
 20
334.0094
 30
0
 40
0.915
 39
  0
0
CIRCLE
8
JA
 10
2.54
 20
331.4694
 30
0
 40
0.915
 39
  0
0
CIRCLE
8
JA
 10
5.08
 20
331.4694
 30
0
 40
0.915
 39
  0
0
CIRCLE
8
JA
 10
7.62
 20
331.4694
 30
0
 40
0.915
 39
  0
0
CIRCLE
8
JA
 10
12.7
 20
331.4694
 30
0
 40
0.585
 39
  0
0
CIRCLE
8
JA
 10
20.32
 20
331.4694
 30
0
 40
0.915
 39
  0
0
CIRCLE
8
JA
 10
12.7
 20
328.9294
 30
0
 40
0.585
 39
  0
0
CIRCLE
8
JA
 10
17.78
 20
328.9294
 30
0
 40
0.915
 39
  0
0
CIRCLE
8
JA
 10
22.86
 20
328.9294
 30
0
 40
0.915
 39
  0
0
CIRCLE
8
JA
 10
12.7
 20
326.3893
 30
0
 40
0.585
 39
  0
0
CIRCLE
8
JA
 10
17.78
 20
326.3893
 30
0
 40
0.915
 39
  0
0
CIRCLE
8
JA
 10
22.86
 20
326.3893
 30
0
 40
0.915
 39
  0
0
CIRCLE
8
JA
 10
12.7
 20
323.8493
 30
0
 40
0.585
 39
  0
0
CIRCLE
8
JA
 10
17.78
 20
323.8493
 30
0
 40
0.915
 39
  0
0
CIRCLE
8
JA
 10
22.86
 20
323.8493
 30
0
 40
0.915
 39
  0
0
CIRCLE
8
JA
 10
12.7
 20
321.3093
 30
0
 40
0.585
 39
  0
0
CIRCLE
8
JA
 10
17.78
 20
321.3093
 30
0
 40
0.915
 39
  0
0
CIRCLE
8
JA
 10
22.86
 20
321.3093
 30
0
 40
0.915
 39
  0
0
CIRCLE
8
JA
 10
12.7
 20
318.7693
 30
0
 40
0.585
 39
  0
0
CIRCLE
8
JA
 10
17.78
 20
318.7693
 30
0
 40
0.915
 39
  0
0
CIRCLE
8
JA
 10
22.86
 20
318.7693
 30
0
 40
0.915
 39
  0
0
CIRCLE
8
JA
 10
7.62
 20
316.2293
 30
0
 40
0.915
 39
  0
0
CIRCLE
8
JA
 10
12.7
 20
316.2293
 30
0
 40
0.585
 39
  0
0
CIRCLE
8
JA
 10
20.32
 20
316.2293
 30
0
 40
0.915
 39
  0
0
CIRCLE
8
JA
 10
2.54
 20
313.6893
 30
0
 40
0.915
 39
  0
0
CIRCLE
8
JA
 10
7.62
 20
313.6893
 30
0
 40
0.915
 39
  0
0
CIRCLE
8
JA
 10
12.7
 20
313.6893
 30
0
 40
0.585
 39
  0
0
CIRCLE
8
JA
 10
20.32
 20
313.6893
 30
0
 40
0.915
 39
  0
0
CIRCLE
8
JA
 10
22.86
 20
313.6893
 30
0
 40
0.915
 39
  0
0
CIRCLE
8
JA
 10
2.54
 20
311.1493
 30
0
 40
0.915
 39
  0
0
CIRCLE
8
JA
 10
5.08
 20
311.1493
 30
0
 40
0.915
 39
  0
0
CIRCLE
8
JA
 10
12.7
 20
311.1493
 30
0
 40
0.585
 39
  0
0
CIRCLE
8
JA
 10
20.32
 20
311.1493
 30
0
 40
0.915
 39
  0
0
CIRCLE
8
JA
 10
22.86
 20
311.1493
 30
0
 40
0.915
 39
  0
0
CIRCLE
8
JA
 10
2.54
 20
308.6093
 30
0
 40
0.915
 39
  0
0
CIRCLE
8
JA
 10
12.7
 20
308.6093
 30
0
 40
0.585
 39
  0
0
CIRCLE
8
JA
 10
15.24
 20
308.6093
 30
0
 40
0.915
 39
  0
0
CIRCLE
8
JA
 10
17.78
 20
308.6093
 30
0
 40
0.915
 39
  0
0
CIRCLE
8
JA
 10
22.86
 20
308.6093
 30
0
 40
0.915
 39
  0
0
CIRCLE
8
JA
 10
2.54
 20
306.0693
 30
0
 40
0.915
 39
  0
0
CIRCLE
8
JA
 10
12.7
 20
306.0693
 30
0
 40
0.585
 39
  0
0
CIRCLE
8
JA
 10
20.32
 20
306.0693
 30
0
 40
0.915
 39
  0
0
CIRCLE
8
JA
 10
2.54
 20
303.5293
 30
0
 40
0.915
 39
  0
0
CIRCLE
8
JA
 10
7.62
 20
303.5293
 30
0
 40
0.915
 39
  0
0
CIRCLE
8
JA
 10
12.7
 20
303.5293
 30
0
 40
0.585
 39
  0
0
CIRCLE
8
JA
 10
15.24
 20
303.5293
 30
0
 40
0.915
 39
  0
0
CIRCLE
8
JA
 10
17.78
 20
303.5293
 30
0
 40
0.915
 39
  0
0
CIRCLE
8
JA
 10
2.54
 20
300.9893
 30
0
 40
0.915
 39
  0
0
CIRCLE
8
JA
 10
7.62
 20
300.9893
 30
0
 40
0.915
 39
  0
0
CIRCLE
8
JA
 10
12.7
 20
300.9893
 30
0
 40
0.585
 39
  0
0
CIRCLE
8
JA
 10
15.24
 20
300.9893
 30
0
 40
0.915
 39
  0
0
CIRCLE
8
JA
 10
17.78
 20
300.9893
 30
0
 40
0.915
 39
  0
0
CIRCLE
8
JA
 10
2.54
 20
298.4492
 30
0
 40
0.915
 39
  0
0
CIRCLE
8
JA
 10
12.7
 20
298.4492
 30
0
 40
0.585
 39
  0
0
CIRCLE
8
JA
 10
15.24
 20
298.4492
 30
0
 40
0.915
 39
  0
0
CIRCLE
8
JA
 10
17.78
 20
298.4492
 30
0
 40
0.915
 39
  0
0
CIRCLE
8
JA
 10
22.86
 20
298.4492
 30
0
 40
0.915
 39
  0
0
CIRCLE
8
JA
 10
5.08
 20
295.9092
 30
0
 40
0.915
 39
  0
0
CIRCLE
8
JA
 10
7.62
 20
295.9092
 30
0
 40
0.915
 39
  0
0
CIRCLE
8
JA
 10
12.7
 20
295.9092
 30
0
 40
0.585
 39
  0
0
CIRCLE
8
JA
 10
20.32
 20
295.9092
 30
0
 40
0.915
 39
  0
0
CIRCLE
8
JA
 10
22.86
 20
295.9092
 30
0
 40
0.915
 39
  0
0
CIRCLE
8
JA
 10
2.54
 20
293.3692
 30
0
 40
0.915
 39
  0
0
CIRCLE
8
JA
 10
12.7
 20
293.3692
 30
0
 40
0.585
 39
  0
0
CIRCLE
8
JA
 10
15.24
 20
293.3692
 30
0
 40
0.915
 39
  0
0
CIRCLE
8
JA
 10
17.78
 20
293.3692
 30
0
 40
0.915
 39
  0
0
CIRCLE
8
JA
 10
22.86
 20
293.3692
 30
0
 40
0.915
 39
  0
0
CIRCLE
8
JA
 10
2.54
 20
290.8292
 30
0
 40
0.915
 39
  0
0
CIRCLE
8
JA
 10
7.62
 20
290.8292
 30
0
 40
0.915
 39
  0
0
CIRCLE
8
JA
 10
12.7
 20
290.8292
 30
0
 40
0.585
 39
  0
0
CIRCLE
8
JA
 10
20.32
 20
290.8292
 30
0
 40
0.915
 39
  0
0
CIRCLE
8
JA
 10
22.86
 20
290.8292
 30
0
 40
0.915
 39
  0
0
CIRCLE
8
JA
 10
7.62
 20
288.2892
 30
0
 40
0.915
 39
  0
0
CIRCLE
8
JA
 10
12.7
 20
288.2892
 30
0
 40
0.585
 39
  0
0
CIRCLE
8
JA
 10
20.32
 20
288.2892
 30
0
 40
0.915
 39
  0
0
CIRCLE
8
JA
 10
5.08
 20
285.7492
 30
0
 40
0.915
 39
  0
0
CIRCLE
8
JA
 10
7.62
 20
285.7492
 30
0
 40
0.915
 39
  0
0
CIRCLE
8
JA
 10
12.7
 20
285.7492
 30
0
 40
0.585
 39
  0
0
CIRCLE
8
JA
 10
20.32
 20
285.7492
 30
0
 40
0.915
 39
  0
0
CIRCLE
8
JA
 10
22.86
 20
285.7492
 30
0
 40
0.915
 39
  0
0
CIRCLE
8
JA
 10
2.54
 20
283.2092
 30
0
 40
0.915
 39
  0
0
CIRCLE
8
JA
 10
12.7
 20
283.2092
 30
0
 40
0.585
 39
  0
0
CIRCLE
8
JA
 10
15.24
 20
283.2092
 30
0
 40
0.915
 39
  0
0
CIRCLE
8
JA
 10
17.78
 20
283.2092
 30
0
 40
0.915
 39
  0
0
CIRCLE
8
JA
 10
22.86
 20
283.2092
 30
0
 40
0.915
 39
  0
0
CIRCLE
8
JA
 10
2.54
 20
280.6692
 30
0
 40
0.915
 39
  0
0
CIRCLE
8
JA
 10
12.7
 20
280.6692
 30
0
 40
0.585
 39
  0
0
CIRCLE
8
JA
 10
15.24
 20
280.6692
 30
0
 40
0.915
 39
  0
0
CIRCLE
8
JA
 10
17.78
 20
280.6692
 30
0
 40
0.915
 39
  0
0
CIRCLE
8
JA
 10
22.86
 20
280.6692
 30
0
 40
0.915
 39
  0
0
CIRCLE
8
JA
 10
2.54
 20
278.1292
 30
0
 40
0.915
 39
  0
0
CIRCLE
8
JA
 10
7.62
 20
278.1292
 30
0
 40
0.915
 39
  0
0
CIRCLE
8
JA
 10
12.7
 20
278.1292
 30
0
 40
0.585
 39
  0
0
CIRCLE
8
JA
 10
20.32
 20
278.1292
 30
0
 40
0.915
 39
  0
0
CIRCLE
8
JA
 10
22.86
 20
278.1292
 30
0
 40
0.915
 39
  0
0
CIRCLE
8
JA
 10
12.7
 20
275.5892
 30
0
 40
0.585
 39
  0
0
CIRCLE
8
JA
 10
15.24
 20
275.5892
 30
0
 40
0.915
 39
  0
0
CIRCLE
8
JA
 10
17.78
 20
275.5892
 30
0
 40
0.915
 39
  0
0
CIRCLE
8
JA
 10
2.54
 20
273.0492
 30
0
 40
0.915
 39
  0
0
CIRCLE
8
JA
 10
12.7
 20
273.0492
 30
0
 40
0.585
 39
  0
0
CIRCLE
8
JA
 10
15.24
 20
273.0492
 30
0
 40
0.915
 39
  0
0
CIRCLE
8
JA
 10
17.78
 20
273.0492
 30
0
 40
0.915
 39
  0
0
CIRCLE
8
JA
 10
22.86
 20
273.0492
 30
0
 40
0.915
 39
  0
0
CIRCLE
8
JA
 10
12.7
 20
270.5092
 30
0
 40
0.585
 39
  0
0
CIRCLE
8
JA
 10
15.24
 20
270.5092
 30
0
 40
0.915
 39
  0
0
CIRCLE
8
JA
 10
17.78
 20
270.5092
 30
0
 40
0.915
 39
  0
0
CIRCLE
8
JA
 10
2.54
 20
267.9691
 30
0
 40
0.915
 39
  0
0
CIRCLE
8
JA
 10
5.08
 20
267.9691
 30
0
 40
0.915
 39
  0
0
CIRCLE
8
JA
 10
12.7
 20
267.9691
 30
0
 40
0.585
 39
  0
0
CIRCLE
8
JA
 10
15.24
 20
267.9691
 30
0
 40
0.915
 39
  0
0
CIRCLE
8
JA
 10
17.78
 20
267.9691
 30
0
 40
0.915
 39
  0
0
CIRCLE
8
JA
 10
2.54
 20
265.4291
 30
0
 40
0.915
 39
  0
0
CIRCLE
8
JA
 10
12.7
 20
265.4291
 30
0
 40
0.585
 39
  0
0
CIRCLE
8
JA
 10
15.24
 20
265.4291
 30
0
 40
0.915
 39
  0
0
CIRCLE
8
JA
 10
17.78
 20
265.4291
 30
0
 40
0.915
 39
  0
0
CIRCLE
8
JA
 10
22.86
 20
265.4291
 30
0
 40
0.915
 39
  0
0
CIRCLE
8
JA
 10
2.54
 20
262.8891
 30
0
 40
0.915
 39
  0
0
CIRCLE
8
JA
 10
10.16
 20
262.8891
 30
0
 40
0.915
 39
  0
0
CIRCLE
8
JA
 10
12.7
 20
262.8891
 30
0
 40
0.585
 39
  0
0
CIRCLE
8
JA
 10
15.24
 20
262.8891
 30
0
 40
0.915
 39
  0
0
CIRCLE
8
JA
 10
17.78
 20
262.8891
 30
0
 40
0.915
 39
  0
0
CIRCLE
8
JA
 10
5.08
 20
260.3491
 30
0
 40
0.915
 39
  0
0
CIRCLE
8
JA
 10
10.16
 20
260.3491
 30
0
 40
0.915
 39
  0
0
CIRCLE
8
JA
 10
12.7
 20
260.3491
 30
0
 40
0.585
 39
  0
0
CIRCLE
8
JA
 10
12.7
 20
257.8091
 30
0
 40
0.585
 39
  0
0
CIRCLE
8
JA
 10
15.24
 20
257.8091
 30
0
 40
0.915
 39
  0
0
CIRCLE
8
JA
 10
17.78
 20
257.8091
 30
0
 40
0.915
 39
  0
0
CIRCLE
8
JA
 10
2.54
 20
255.2691
 30
0
 40
0.915
 39
  0
0
CIRCLE
8
JA
 10
12.7
 20
255.2691
 30
0
 40
0.585
 39
  0
0
CIRCLE
8
JA
 10
15.24
 20
255.2691
 30
0
 40
0.915
 39
  0
0
CIRCLE
8
JA
 10
17.78
 20
255.2691
 30
0
 40
0.915
 39
  0
0
CIRCLE
8
JA
 10
22.86
 20
255.2691
 30
0
 40
0.915
 39
  0
0
CIRCLE
8
JA
 10
12.7
 20
252.7291
 30
0
 40
0.585
 39
  0
0
CIRCLE
8
JA
 10
15.24
 20
252.7291
 30
0
 40
0.915
 39
  0
0
CIRCLE
8
JA
 10
17.78
 20
252.7291
 30
0
 40
0.915
 39
  0
0
CIRCLE
8
JA
 10
5.08
 20
250.1891
 30
0
 40
0.915
 39
  0
0
CIRCLE
8
JA
 10
12.7
 20
250.1891
 30
0
 40
0.585
 39
  0
0
CIRCLE
8
JA
 10
15.24
 20
250.1891
 30
0
 40
0.915
 39
  0
0
CIRCLE
8
JA
 10
17.78
 20
250.1891
 30
0
 40
0.915
 39
  0
0
CIRCLE
8
JA
 10
22.86
 20
250.1891
 30
0
 40
0.915
 39
  0
0
CIRCLE
8
JA
 10
12.7
 20
247.6491
 30
0
 40
0.585
 39
  0
0
CIRCLE
8
JA
 10
15.24
 20
247.6491
 30
0
 40
0.915
 39
  0
0
CIRCLE
8
JA
 10
17.78
 20
247.6491
 30
0
 40
0.915
 39
  0
0
CIRCLE
8
JA
 10
2.54
 20
245.1091
 30
0
 40
0.915
 39
  0
0
CIRCLE
8
JA
 10
12.7
 20
245.1091
 30
0
 40
0.585
 39
  0
0
CIRCLE
8
JA
 10
15.24
 20
245.1091
 30
0
 40
0.915
 39
  0
0
CIRCLE
8
JA
 10
17.78
 20
245.1091
 30
0
 40
0.915
 39
  0
0
CIRCLE
8
JA
 10
22.86
 20
245.1091
 30
0
 40
0.915
 39
  0
0
CIRCLE
8
JA
 10
12.7
 20
242.5692
 30
0
 40
0.585
 39
  0
0
CIRCLE
8
JA
 10
15.24
 20
242.5692
 30
0
 40
0.915
 39
  0
0
CIRCLE
8
JA
 10
17.78
 20
242.5692
 30
0
 40
0.915
 39
  0
0
CIRCLE
8
JA
 10
7.62
 20
240.0292
 30
0
 40
0.915
 39
  0
0
CIRCLE
8
JA
 10
12.7
 20
240.0292
 30
0
 40
0.585
 39
  0
0
CIRCLE
8
JA
 10
15.24
 20
240.0292
 30
0
 40
0.915
 39
  0
0
CIRCLE
8
JA
 10
17.78
 20
240.0292
 30
0
 40
0.915
 39
  0
0
CIRCLE
8
JA
 10
22.86
 20
240.0292
 30
0
 40
0.915
 39
  0
0
CIRCLE
8
JA
 10
7.62
 20
237.4892
 30
0
 40
0.915
 39
  0
0
CIRCLE
8
JA
 10
12.7
 20
237.4892
 30
0
 40
0.585
 39
  0
0
CIRCLE
8
JA
 10
15.24
 20
237.4892
 30
0
 40
0.915
 39
  0
0
CIRCLE
8
JA
 10
17.78
 20
237.4892
 30
0
 40
0.915
 39
  0
0
CIRCLE
8
JA
 10
22.86
 20
237.4892
 30
0
 40
0.915
 39
  0
0
CIRCLE
8
JA
 10
5.08
 20
234.9492
 30
0
 40
0.915
 39
  0
0
CIRCLE
8
JA
 10
7.62
 20
234.9492
 30
0
 40
0.915
 39
  0
0
CIRCLE
8
JA
 10
12.7
 20
234.9492
 30
0
 40
0.585
 39
  0
0
CIRCLE
8
JA
 10
15.24
 20
234.9492
 30
0
 40
0.915
 39
  0
0
CIRCLE
8
JA
 10
17.78
 20
234.9492
 30
0
 40
0.915
 39
  0
0
CIRCLE
8
JA
 10
2.54
 20
232.4092
 30
0
 40
0.915
 39
  0
0
CIRCLE
8
JA
 10
7.62
 20
232.4092
 30
0
 40
0.915
 39
  0
0
CIRCLE
8
JA
 10
12.7
 20
232.4092
 30
0
 40
0.585
 39
  0
0
CIRCLE
8
JA
 10
20.32
 20
232.4092
 30
0
 40
0.915
 39
  0
0
CIRCLE
8
JA
 10
22.86
 20
232.4092
 30
0
 40
0.915
 39
  0
0
CIRCLE
8
JA
 10
5.08
 20
229.8692
 30
0
 40
0.915
 39
  0
0
CIRCLE
8
JA
 10
7.62
 20
229.8692
 30
0
 40
0.915
 39
  0
0
CIRCLE
8
JA
 10
12.7
 20
229.8692
 30
0
 40
0.585
 39
  0
0
CIRCLE
8
JA
 10
15.24
 20
229.8692
 30
0
 40
0.915
 39
  0
0
CIRCLE
8
JA
 10
20.32
 20
229.8692
 30
0
 40
0.915
 39
  0
0
CIRCLE
8
JA
 10
2.54
 20
227.3292
 30
0
 40
0.915
 39
  0
0
CIRCLE
8
JA
 10
10.16
 20
227.3292
 30
0
 40
0.915
 39
  0
0
CIRCLE
8
JA
 10
12.7
 20
227.3292
 30
0
 40
0.585
 39
  0
0
CIRCLE
8
JA
 10
20.32
 20
227.3292
 30
0
 40
0.915
 39
  0
0
CIRCLE
8
JA
 10
22.86
 20
227.3292
 30
0
 40
0.915
 39
  0
0
CIRCLE
8
JA
 10
7.62
 20
224.7892
 30
0
 40
0.915
 39
  0
0
CIRCLE
8
JA
 10
10.16
 20
224.7892
 30
0
 40
0.915
 39
  0
0
CIRCLE
8
JA
 10
12.7
 20
224.7892
 30
0
 40
0.585
 39
  0
0
CIRCLE
8
JA
 10
20.32
 20
224.7892
 30
0
 40
0.915
 39
  0
0
CIRCLE
8
JA
 10
22.86
 20
224.7892
 30
0
 40
0.915
 39
  0
0
CIRCLE
8
JA
 10
12.7
 20
222.2492
 30
0
 40
0.585
 39
  0
0
CIRCLE
8
JA
 10
17.78
 20
222.2492
 30
0
 40
0.915
 39
  0
0
CIRCLE
8
JA
 10
22.86
 20
222.2492
 30
0
 40
0.915
 39
  0
0
CIRCLE
8
JA
 10
2.54
 20
219.7092
 30
0
 40
0.915
 39
  0
0
CIRCLE
8
JA
 10
7.62
 20
219.7092
 30
0
 40
0.915
 39
  0
0
CIRCLE
8
JA
 10
10.16
 20
219.7092
 30
0
 40
0.915
 39
  0
0
CIRCLE
8
JA
 10
12.7
 20
219.7092
 30
0
 40
0.585
 39
  0
0
CIRCLE
8
JA
 10
20.32
 20
219.7092
 30
0
 40
0.915
 39
  0
0
CIRCLE
8
JA
 10
2.54
 20
217.1692
 30
0
 40
0.915
 39
  0
0
CIRCLE
8
JA
 10
5.08
 20
217.1692
 30
0
 40
0.915
 39
  0
0
CIRCLE
8
JA
 10
7.62
 20
217.1692
 30
0
 40
0.915
 39
  0
0
CIRCLE
8
JA
 10
10.16
 20
217.1692
 30
0
 40
0.915
 39
  0
0
CIRCLE
8
JA
 10
12.7
 20
217.1692
 30
0
 40
0.585
 39
  0
0
CIRCLE
8
JA
 10
20.32
 20
217.1692
 30
0
 40
0.915
 39
  0
0
CIRCLE
8
JA
 10
22.86
 20
217.1692
 30
0
 40
0.915
 39
  0
0
CIRCLE
8
JA
 10
2.54
 20
214.6292
 30
0
 40
0.915
 39
  0
0
CIRCLE
8
JA
 10
5.08
 20
214.6292
 30
0
 40
0.915
 39
  0
0
CIRCLE
8
JA
 10
7.62
 20
214.6292
 30
0
 40
0.915
 39
  0
0
CIRCLE
8
JA
 10
12.7
 20
214.6292
 30
0
 40
0.585
 39
  0
0
CIRCLE
8
JA
 10
20.32
 20
214.6292
 30
0
 40
0.915
 39
  0
0
CIRCLE
8
JA
 10
12.7
 20
212.0892
 30
0
 40
0.585
 39
  0
0
CIRCLE
8
JA
 10
17.78
 20
212.0892
 30
0
 40
0.915
 39
  0
0
CIRCLE
8
JA
 10
22.86
 20
212.0892
 30
0
 40
0.915
 39
  0
0
CIRCLE
8
JA
 10
12.7
 20
209.5492
 30
0
 40
0.585
 39
  0
0
CIRCLE
8
JA
 10
17.78
 20
209.5492
 30
0
 40
0.915
 39
  0
0
CIRCLE
8
JA
 10
22.86
 20
209.5492
 30
0
 40
0.915
 39
  0
0
CIRCLE
8
JA
 10
12.7
 20
207.0092
 30
0
 40
0.585
 39
  0
0
CIRCLE
8
JA
 10
17.78
 20
207.0092
 30
0
 40
0.915
 39
  0
0
CIRCLE
8
JA
 10
22.86
 20
207.0092
 30
0
 40
0.915
 39
  0
0
CIRCLE
8
JA
 10
12.7
 20
204.4693
 30
0
 40
0.585
 39
  0
0
CIRCLE
8
JA
 10
17.78
 20
204.4693
 30
0
 40
0.915
 39
  0
0
CIRCLE
8
JA
 10
22.86
 20
204.4693
 30
0
 40
0.915
 39
  0
0
CIRCLE
8
JA
 10
12.7
 20
201.9293
 30
0
 40
0.585
 39
  0
0
CIRCLE
8
JA
 10
17.78
 20
201.9293
 30
0
 40
0.915
 39
  0
0
CIRCLE
8
JA
 10
22.86
 20
201.9293
 30
0
 40
0.915
 39
  0
0
CIRCLE
8
JA
 10
12.7
 20
199.3893
 30
0
 40
0.585
 39
  0
0
CIRCLE
8
JA
 10
15.24
 20
199.3893
 30
0
 40
0.915
 39
  0
0
CIRCLE
8
JA
 10
17.78
 20
199.3893
 30
0
 40
0.915
 39
  0
0
CIRCLE
8
JA
 10
5.08
 20
196.8493
 30
0
 40
0.915
 39
  0
0
CIRCLE
8
JA
 10
7.62
 20
196.8493
 30
0
 40
0.915
 39
  0
0
CIRCLE
8
JA
 10
12.7
 20
196.8493
 30
0
 40
0.585
 39
  0
0
CIRCLE
8
JA
 10
20.32
 20
196.8493
 30
0
 40
0.915
 39
  0
0
CIRCLE
8
JA
 10
22.86
 20
196.8493
 30
0
 40
0.915
 39
  0
0
CIRCLE
8
JA
 10
5.08
 20
194.3093
 30
0
 40
0.915
 39
  0
0
CIRCLE
8
JA
 10
7.62
 20
194.3093
 30
0
 40
0.915
 39
  0
0
CIRCLE
8
JA
 10
12.7
 20
194.3093
 30
0
 40
0.585
 39
  0
0
CIRCLE
8
JA
 10
20.32
 20
194.3093
 30
0
 40
0.915
 39
  0
0
CIRCLE
8
JA
 10
22.86
 20
194.3093
 30
0
 40
0.915
 39
  0
0
CIRCLE
8
JA
 10
2.54
 20
191.7693
 30
0
 40
0.915
 39
  0
0
CIRCLE
8
JA
 10
12.7
 20
191.7693
 30
0
 40
0.585
 39
  0
0
CIRCLE
8
JA
 10
15.24
 20
191.7693
 30
0
 40
0.915
 39
  0
0
CIRCLE
8
JA
 10
17.78
 20
191.7693
 30
0
 40
0.915
 39
  0
0
CIRCLE
8
JA
 10
22.86
 20
191.7693
 30
0
 40
0.915
 39
  0
0
CIRCLE
8
JA
 10
2.54
 20
189.2293
 30
0
 40
0.915
 39
  0
0
CIRCLE
8
JA
 10
5.08
 20
189.2293
 30
0
 40
0.915
 39
  0
0
CIRCLE
8
JA
 10
12.7
 20
189.2293
 30
0
 40
0.585
 39
  0
0
CIRCLE
8
JA
 10
20.32
 20
189.2293
 30
0
 40
0.915
 39
  0
0
CIRCLE
8
JA
 10
22.86
 20
189.2293
 30
0
 40
0.915
 39
  0
0
CIRCLE
8
JA
 10
2.54
 20
186.6893
 30
0
 40
0.915
 39
  0
0
CIRCLE
8
JA
 10
12.7
 20
186.6893
 30
0
 40
0.585
 39
  0
0
CIRCLE
8
JA
 10
15.24
 20
186.6893
 30
0
 40
0.915
 39
  0
0
CIRCLE
8
JA
 10
17.78
 20
186.6893
 30
0
 40
0.915
 39
  0
0
CIRCLE
8
JA
 10
22.86
 20
186.6893
 30
0
 40
0.915
 39
  0
0
CIRCLE
8
JA
 10
2.54
 20
184.1493
 30
0
 40
0.915
 39
  0
0
CIRCLE
8
JA
 10
12.7
 20
184.1493
 30
0
 40
0.585
 39
  0
0
CIRCLE
8
JA
 10
20.32
 20
184.1493
 30
0
 40
0.915
 39
  0
0
CIRCLE
8
JA
 10
2.54
 20
181.6093
 30
0
 40
0.915
 39
  0
0
CIRCLE
8
JA
 10
12.7
 20
181.6093
 30
0
 40
0.585
 39
  0
0
CIRCLE
8
JA
 10
15.24
 20
181.6093
 30
0
 40
0.915
 39
  0
0
CIRCLE
8
JA
 10
17.78
 20
181.6093
 30
0
 40
0.915
 39
  0
0
CIRCLE
8
JA
 10
22.86
 20
181.6093
 30
0
 40
0.915
 39
  0
0
CIRCLE
8
JA
 10
2.54
 20
179.0693
 30
0
 40
0.915
 39
  0
0
CIRCLE
8
JA
 10
5.08
 20
179.0693
 30
0
 40
0.915
 39
  0
0
CIRCLE
8
JA
 10
12.7
 20
179.0693
 30
0
 40
0.585
 39
  0
0
CIRCLE
8
JA
 10
20.32
 20
179.0693
 30
0
 40
0.915
 39
  0
0
CIRCLE
8
JA
 10
22.86
 20
179.0693
 30
0
 40
0.915
 39
  0
0
CIRCLE
8
JA
 10
2.54
 20
176.5293
 30
0
 40
0.915
 39
  0
0
CIRCLE
8
JA
 10
12.7
 20
176.5293
 30
0
 40
0.585
 39
  0
0
CIRCLE
8
JA
 10
20.32
 20
176.5293
 30
0
 40
0.915
 39
  0
0
CIRCLE
8
JA
 10
5.08
 20
173.9893
 30
0
 40
0.915
 39
  0
0
CIRCLE
8
JA
 10
12.7
 20
173.9893
 30
0
 40
0.585
 39
  0
0
CIRCLE
8
JA
 10
20.32
 20
173.9893
 30
0
 40
0.915
 39
  0
0
CIRCLE
8
JA
 10
2.54
 20
171.4493
 30
0
 40
0.915
 39
  0
0
CIRCLE
8
JA
 10
12.7
 20
171.4493
 30
0
 40
0.585
 39
  0
0
CIRCLE
8
JA
 10
15.24
 20
171.4493
 30
0
 40
0.915
 39
  0
0
CIRCLE
8
JA
 10
17.78
 20
171.4493
 30
0
 40
0.915
 39
  0
0
CIRCLE
8
JA
 10
22.86
 20
171.4493
 30
0
 40
0.915
 39
  0
0
CIRCLE
8
JA
 10
2.54
 20
168.9093
 30
0
 40
0.915
 39
  0
0
CIRCLE
8
JA
 10
7.62
 20
168.9093
 30
0
 40
0.915
 39
  0
0
CIRCLE
8
JA
 10
12.7
 20
168.9093
 30
0
 40
0.585
 39
  0
0
CIRCLE
8
JA
 10
20.32
 20
168.9093
 30
0
 40
0.915
 39
  0
0
CIRCLE
8
JA
 10
22.86
 20
168.9093
 30
0
 40
0.915
 39
  0
0
CIRCLE
8
JA
 10
5.08
 20
166.3694
 30
0
 40
0.915
 39
  0
0
CIRCLE
8
JA
 10
7.62
 20
166.3694
 30
0
 40
0.915
 39
  0
0
CIRCLE
8
JA
 10
12.7
 20
166.3694
 30
0
 40
0.585
 39
  0
0
CIRCLE
8
JA
 10
20.32
 20
166.3694
 30
0
 40
0.915
 39
  0
0
CIRCLE
8
JA
 10
22.86
 20
166.3694
 30
0
 40
0.915
 39
  0
0
CIRCLE
8
JA
 10
2.54
 20
163.8294
 30
0
 40
0.915
 39
  0
0
CIRCLE
8
JA
 10
12.7
 20
163.8294
 30
0
 40
0.585
 39
  0
0
CIRCLE
8
JA
 10
15.24
 20
163.8294
 30
0
 40
0.915
 39
  0
0
CIRCLE
8
JA
 10
17.78
 20
163.8294
 30
0
 40
0.915
 39
  0
0
CIRCLE
8
JA
 10
22.86
 20
163.8294
 30
0
 40
0.915
 39
  0
0
CIRCLE
8
JA
 10
2.54
 20
161.2894
 30
0
 40
0.915
 39
  0
0
CIRCLE
8
JA
 10
12.7
 20
161.2894
 30
0
 40
0.585
 39
  0
0
CIRCLE
8
JA
 10
15.24
 20
161.2894
 30
0
 40
0.915
 39
  0
0
CIRCLE
8
JA
 10
17.78
 20
161.2894
 30
0
 40
0.915
 39
  0
0
CIRCLE
8
JA
 10
22.86
 20
161.2894
 30
0
 40
0.915
 39
  0
0
CIRCLE
8
JA
 10
2.54
 20
158.7494
 30
0
 40
0.915
 39
  0
0
CIRCLE
8
JA
 10
7.62
 20
158.7494
 30
0
 40
0.915
 39
  0
0
CIRCLE
8
JA
 10
12.7
 20
158.7494
 30
0
 40
0.585
 39
  0
0
CIRCLE
8
JA
 10
20.32
 20
158.7494
 30
0
 40
0.915
 39
  0
0
CIRCLE
8
JA
 10
22.86
 20
158.7494
 30
0
 40
0.915
 39
  0
0
CIRCLE
8
JA
 10
2.54
 20
156.2094
 30
0
 40
0.915
 39
  0
0
CIRCLE
8
JA
 10
7.62
 20
156.2094
 30
0
 40
0.915
 39
  0
0
CIRCLE
8
JA
 10
12.7
 20
156.2094
 30
0
 40
0.585
 39
  0
0
CIRCLE
8
JA
 10
15.24
 20
156.2094
 30
0
 40
0.915
 39
  0
0
CIRCLE
8
JA
 10
17.78
 20
156.2094
 30
0
 40
0.915
 39
  0
0
CIRCLE
8
JA
 10
12.7
 20
153.6694
 30
0
 40
0.585
 39
  0
0
CIRCLE
8
JA
 10
15.24
 20
153.6694
 30
0
 40
0.915
 39
  0
0
CIRCLE
8
JA
 10
17.78
 20
153.6694
 30
0
 40
0.915
 39
  0
0
CIRCLE
8
JA
 10
2.54
 20
151.1294
 30
0
 40
0.915
 39
  0
0
CIRCLE
8
JA
 10
5.08
 20
151.1294
 30
0
 40
0.915
 39
  0
0
CIRCLE
8
JA
 10
12.7
 20
151.1294
 30
0
 40
0.585
 39
  0
0
CIRCLE
8
JA
 10
15.24
 20
151.1294
 30
0
 40
0.915
 39
  0
0
CIRCLE
8
JA
 10
17.78
 20
151.1294
 30
0
 40
0.915
 39
  0
0
CIRCLE
8
JA
 10
2.54
 20
148.5894
 30
0
 40
0.915
 39
  0
0
CIRCLE
8
JA
 10
12.7
 20
148.5894
 30
0
 40
0.585
 39
  0
0
CIRCLE
8
JA
 10
15.24
 20
148.5894
 30
0
 40
0.915
 39
  0
0
CIRCLE
8
JA
 10
17.78
 20
148.5894
 30
0
 40
0.915
 39
  0
0
CIRCLE
8
JA
 10
22.86
 20
148.5894
 30
0
 40
0.915
 39
  0
0
CIRCLE
8
JA
 10
2.54
 20
146.0494
 30
0
 40
0.915
 39
  0
0
CIRCLE
8
JA
 10
10.16
 20
146.0494
 30
0
 40
0.915
 39
  0
0
CIRCLE
8
JA
 10
12.7
 20
146.0494
 30
0
 40
0.585
 39
  0
0
CIRCLE
8
JA
 10
15.24
 20
146.0494
 30
0
 40
0.915
 39
  0
0
CIRCLE
8
JA
 10
17.78
 20
146.0494
 30
0
 40
0.915
 39
  0
0
CIRCLE
8
JA
 10
5.08
 20
143.5094
 30
0
 40
0.915
 39
  0
0
CIRCLE
8
JA
 10
10.16
 20
143.5094
 30
0
 40
0.915
 39
  0
0
CIRCLE
8
JA
 10
12.7
 20
143.5094
 30
0
 40
0.585
 39
  0
0
CIRCLE
8
JA
 10
12.7
 20
140.9694
 30
0
 40
0.585
 39
  0
0
CIRCLE
8
JA
 10
15.24
 20
140.9694
 30
0
 40
0.915
 39
  0
0
CIRCLE
8
JA
 10
17.78
 20
140.9694
 30
0
 40
0.915
 39
  0
0
CIRCLE
8
JA
 10
2.54
 20
138.4294
 30
0
 40
0.915
 39
  0
0
CIRCLE
8
JA
 10
12.7
 20
138.4294
 30
0
 40
0.585
 39
  0
0
CIRCLE
8
JA
 10
15.24
 20
138.4294
 30
0
 40
0.915
 39
  0
0
CIRCLE
8
JA
 10
17.78
 20
138.4294
 30
0
 40
0.915
 39
  0
0
CIRCLE
8
JA
 10
22.86
 20
138.4294
 30
0
 40
0.915
 39
  0
0
CIRCLE
8
JA
 10
12.7
 20
135.8894
 30
0
 40
0.585
 39
  0
0
CIRCLE
8
JA
 10
15.24
 20
135.8894
 30
0
 40
0.915
 39
  0
0
CIRCLE
8
JA
 10
17.78
 20
135.8894
 30
0
 40
0.915
 39
  0
0
CIRCLE
8
JA
 10
5.08
 20
133.3494
 30
0
 40
0.915
 39
  0
0
CIRCLE
8
JA
 10
12.7
 20
133.3494
 30
0
 40
0.585
 39
  0
0
CIRCLE
8
JA
 10
15.24
 20
133.3494
 30
0
 40
0.915
 39
  0
0
CIRCLE
8
JA
 10
17.78
 20
133.3494
 30
0
 40
0.915
 39
  0
0
CIRCLE
8
JA
 10
22.86
 20
133.3494
 30
0
 40
0.915
 39
  0
0
CIRCLE
8
JA
 10
12.7
 20
130.8094
 30
0
 40
0.585
 39
  0
0
CIRCLE
8
JA
 10
15.24
 20
130.8094
 30
0
 40
0.915
 39
  0
0
CIRCLE
8
JA
 10
17.78
 20
130.8094
 30
0
 40
0.915
 39
  0
0
CIRCLE
8
JA
 10
2.54
 20
128.2695
 30
0
 40
0.915
 39
  0
0
CIRCLE
8
JA
 10
12.7
 20
128.2695
 30
0
 40
0.585
 39
  0
0
CIRCLE
8
JA
 10
15.24
 20
128.2695
 30
0
 40
0.915
 39
  0
0
CIRCLE
8
JA
 10
17.78
 20
128.2695
 30
0
 40
0.915
 39
  0
0
CIRCLE
8
JA
 10
22.86
 20
128.2695
 30
0
 40
0.915
 39
  0
0
CIRCLE
8
JA
 10
12.7
 20
125.7295
 30
0
 40
0.585
 39
  0
0
CIRCLE
8
JA
 10
15.24
 20
125.7295
 30
0
 40
0.915
 39
  0
0
CIRCLE
8
JA
 10
17.78
 20
125.7295
 30
0
 40
0.915
 39
  0
0
CIRCLE
8
JA
 10
7.62
 20
123.1895
 30
0
 40
0.915
 39
  0
0
CIRCLE
8
JA
 10
12.7
 20
123.1895
 30
0
 40
0.585
 39
  0
0
CIRCLE
8
JA
 10
15.24
 20
123.1895
 30
0
 40
0.915
 39
  0
0
CIRCLE
8
JA
 10
17.78
 20
123.1895
 30
0
 40
0.915
 39
  0
0
CIRCLE
8
JA
 10
22.86
 20
123.1895
 30
0
 40
0.915
 39
  0
0
CIRCLE
8
JA
 10
7.62
 20
120.6495
 30
0
 40
0.915
 39
  0
0
CIRCLE
8
JA
 10
12.7
 20
120.6495
 30
0
 40
0.585
 39
  0
0
CIRCLE
8
JA
 10
15.24
 20
120.6495
 30
0
 40
0.915
 39
  0
0
CIRCLE
8
JA
 10
17.78
 20
120.6495
 30
0
 40
0.915
 39
  0
0
CIRCLE
8
JA
 10
22.86
 20
120.6495
 30
0
 40
0.915
 39
  0
0
CIRCLE
8
JA
 10
5.08
 20
118.1095
 30
0
 40
0.915
 39
  0
0
CIRCLE
8
JA
 10
7.62
 20
118.1095
 30
0
 40
0.915
 39
  0
0
CIRCLE
8
JA
 10
12.7
 20
118.1095
 30
0
 40
0.585
 39
  0
0
CIRCLE
8
JA
 10
15.24
 20
118.1095
 30
0
 40
0.915
 39
  0
0
CIRCLE
8
JA
 10
17.78
 20
118.1095
 30
0
 40
0.915
 39
  0
0
CIRCLE
8
JA
 10
2.54
 20
115.5695
 30
0
 40
0.915
 39
  0
0
CIRCLE
8
JA
 10
7.62
 20
115.5695
 30
0
 40
0.915
 39
  0
0
CIRCLE
8
JA
 10
12.7
 20
115.5695
 30
0
 40
0.585
 39
  0
0
CIRCLE
8
JA
 10
20.32
 20
115.5695
 30
0
 40
0.915
 39
  0
0
CIRCLE
8
JA
 10
22.86
 20
115.5695
 30
0
 40
0.915
 39
  0
0
CIRCLE
8
JA
 10
5.08
 20
113.0294
 30
0
 40
0.915
 39
  0
0
CIRCLE
8
JA
 10
7.62
 20
113.0294
 30
0
 40
0.915
 39
  0
0
CIRCLE
8
JA
 10
12.7
 20
113.0294
 30
0
 40
0.585
 39
  0
0
CIRCLE
8
JA
 10
15.24
 20
113.0294
 30
0
 40
0.915
 39
  0
0
CIRCLE
8
JA
 10
20.32
 20
113.0294
 30
0
 40
0.915
 39
  0
0
CIRCLE
8
JA
 10
2.54
 20
110.4894
 30
0
 40
0.915
 39
  0
0
CIRCLE
8
JA
 10
10.16
 20
110.4894
 30
0
 40
0.915
 39
  0
0
CIRCLE
8
JA
 10
12.7
 20
110.4894
 30
0
 40
0.585
 39
  0
0
CIRCLE
8
JA
 10
20.32
 20
110.4894
 30
0
 40
0.915
 39
  0
0
CIRCLE
8
JA
 10
22.86
 20
110.4894
 30
0
 40
0.915
 39
  0
0
CIRCLE
8
JA
 10
7.62
 20
107.9494
 30
0
 40
0.915
 39
  0
0
CIRCLE
8
JA
 10
10.16
 20
107.9494
 30
0
 40
0.915
 39
  0
0
CIRCLE
8
JA
 10
12.7
 20
107.9494
 30
0
 40
0.585
 39
  0
0
CIRCLE
8
JA
 10
20.32
 20
107.9494
 30
0
 40
0.915
 39
  0
0
CIRCLE
8
JA
 10
22.86
 20
107.9494
 30
0
 40
0.915
 39
  0
0
CIRCLE
8
JA
 10
12.7
 20
105.4094
 30
0
 40
0.585
 39
  0
0
CIRCLE
8
JA
 10
17.78
 20
105.4094
 30
0
 40
0.915
 39
  0
0
CIRCLE
8
JA
 10
22.86
 20
105.4094
 30
0
 40
0.915
 39
  0
0
CIRCLE
8
JA
 10
2.54
 20
102.8694
 30
0
 40
0.915
 39
  0
0
CIRCLE
8
JA
 10
7.62
 20
102.8694
 30
0
 40
0.915
 39
  0
0
CIRCLE
8
JA
 10
10.16
 20
102.8694
 30
0
 40
0.915
 39
  0
0
CIRCLE
8
JA
 10
12.7
 20
102.8694
 30
0
 40
0.585
 39
  0
0
CIRCLE
8
JA
 10
20.32
 20
102.8694
 30
0
 40
0.915
 39
  0
0
CIRCLE
8
JA
 10
2.54
 20
100.3294
 30
0
 40
0.915
 39
  0
0
CIRCLE
8
JA
 10
5.08
 20
100.3294
 30
0
 40
0.915
 39
  0
0
CIRCLE
8
JA
 10
7.62
 20
100.3294
 30
0
 40
0.915
 39
  0
0
CIRCLE
8
JA
 10
10.16
 20
100.3294
 30
0
 40
0.915
 39
  0
0
CIRCLE
8
JA
 10
12.7
 20
100.3294
 30
0
 40
0.585
 39
  0
0
CIRCLE
8
JA
 10
20.32
 20
100.3294
 30
0
 40
0.915
 39
  0
0
CIRCLE
8
JA
 10
22.86
 20
100.3294
 30
0
 40
0.915
 39
  0
0
CIRCLE
8
JA
 10
2.54
 20
97.78944
 30
0
 40
0.915
 39
  0
0
CIRCLE
8
JA
 10
5.08
 20
97.78944
 30
0
 40
0.915
 39
  0
0
CIRCLE
8
JA
 10
7.62
 20
97.78944
 30
0
 40
0.915
 39
  0
0
CIRCLE
8
JA
 10
12.7
 20
97.78944
 30
0
 40
0.585
 39
  0
0
CIRCLE
8
JA
 10
20.32
 20
97.78944
 30
0
 40
0.915
 39
  0
0
CIRCLE
8
JA
 10
12.7
 20
95.24944
 30
0
 40
0.585
 39
  0
0
CIRCLE
8
JA
 10
17.78
 20
95.24944
 30
0
 40
0.915
 39
  0
0
CIRCLE
8
JA
 10
22.86
 20
95.24944
 30
0
 40
0.915
 39
  0
0
CIRCLE
8
JA
 10
12.7
 20
92.70944
 30
0
 40
0.585
 39
  0
0
CIRCLE
8
JA
 10
17.78
 20
92.70944
 30
0
 40
0.915
 39
  0
0
CIRCLE
8
JA
 10
22.86
 20
92.70944
 30
0
 40
0.915
 39
  0
0
CIRCLE
8
JA
 10
12.7
 20
90.16944
 30
0
 40
0.585
 39
  0
0
CIRCLE
8
JA
 10
17.78
 20
90.16944
 30
0
 40
0.915
 39
  0
0
CIRCLE
8
JA
 10
22.86
 20
90.16944
 30
0
 40
0.915
 39
  0
0
CIRCLE
8
JA
 10
12.7
 20
87.62944
 30
0
 40
0.585
 39
  0
0
CIRCLE
8
JA
 10
17.78
 20
87.62944
 30
0
 40
0.915
 39
  0
0
CIRCLE
8
JA
 10
22.86
 20
87.62944
 30
0
 40
0.915
 39
  0
0
CIRCLE
8
JA
 10
12.7
 20
85.08944
 30
0
 40
0.585
 39
  0
0
CIRCLE
8
JA
 10
17.78
 20
85.08944
 30
0
 40
0.915
 39
  0
0
CIRCLE
8
JA
 10
22.86
 20
85.08944
 30
0
 40
0.915
 39
  0
0
CIRCLE
8
JA
 10
2.54
 20
82.54944
 30
0
 40
0.915
 39
  0
0
CIRCLE
8
JA
 10
7.62
 20
82.54944
 30
0
 40
0.915
 39
  0
0
CIRCLE
8
JA
 10
12.7
 20
82.54944
 30
0
 40
0.585
 39
  0
0
CIRCLE
8
JA
 10
15.24
 20
82.54944
 30
0
 40
0.915
 39
  0
0
CIRCLE
8
JA
 10
17.78
 20
82.54944
 30
0
 40
0.915
 39
  0
0
CIRCLE
8
JA
 10
12.7
 20
80.00944
 30
0
 40
0.585
 39
  0
0
CIRCLE
8
JA
 10
15.24
 20
80.00944
 30
0
 40
0.915
 39
  0
0
CIRCLE
8
JA
 10
17.78
 20
80.00944
 30
0
 40
0.915
 39
  0
0
CIRCLE
8
JA
 10
2.54
 20
77.46944
 30
0
 40
0.915
 39
  0
0
CIRCLE
8
JA
 10
5.08
 20
77.46944
 30
0
 40
0.915
 39
  0
0
CIRCLE
8
JA
 10
12.7
 20
77.46944
 30
0
 40
0.585
 39
  0
0
CIRCLE
8
JA
 10
20.32
 20
77.46944
 30
0
 40
0.915
 39
  0
0
CIRCLE
8
JA
 10
22.86
 20
77.46944
 30
0
 40
0.915
 39
  0
0
CIRCLE
8
JA
 10
2.54
 20
74.92944
 30
0
 40
0.915
 39
  0
0
CIRCLE
8
JA
 10
12.7
 20
74.92944
 30
0
 40
0.585
 39
  0
0
CIRCLE
8
JA
 10
15.24
 20
74.92944
 30
0
 40
0.915
 39
  0
0
CIRCLE
8
JA
 10
17.78
 20
74.92944
 30
0
 40
0.915
 39
  0
0
CIRCLE
8
JA
 10
22.86
 20
74.92944
 30
0
 40
0.915
 39
  0
0
CIRCLE
8
JA
 10
2.54
 20
72.38943
 30
0
 40
0.915
 39
  0
0
CIRCLE
8
JA
 10
12.7
 20
72.38943
 30
0
 40
0.585
 39
  0
0
CIRCLE
8
JA
 10
20.32
 20
72.38943
 30
0
 40
0.915
 39
  0
0
CIRCLE
8
JA
 10
5.08
 20
69.84943
 30
0
 40
0.915
 39
  0
0
CIRCLE
8
JA
 10
12.7
 20
69.84943
 30
0
 40
0.585
 39
  0
0
CIRCLE
8
JA
 10
20.32
 20
69.84943
 30
0
 40
0.915
 39
  0
0
CIRCLE
8
JA
 10
2.54
 20
67.30943
 30
0
 40
0.915
 39
  0
0
CIRCLE
8
JA
 10
12.7
 20
67.30943
 30
0
 40
0.585
 39
  0
0
CIRCLE
8
JA
 10
15.24
 20
67.30943
 30
0
 40
0.915
 39
  0
0
CIRCLE
8
JA
 10
17.78
 20
67.30943
 30
0
 40
0.915
 39
  0
0
CIRCLE
8
JA
 10
22.86
 20
67.30943
 30
0
 40
0.915
 39
  0
0
CIRCLE
8
JA
 10
2.54
 20
64.76943
 30
0
 40
0.915
 39
  0
0
CIRCLE
8
JA
 10
7.62
 20
64.76943
 30
0
 40
0.915
 39
  0
0
CIRCLE
8
JA
 10
12.7
 20
64.76943
 30
0
 40
0.585
 39
  0
0
CIRCLE
8
JA
 10
20.32
 20
64.76943
 30
0
 40
0.915
 39
  0
0
CIRCLE
8
JA
 10
22.86
 20
64.76943
 30
0
 40
0.915
 39
  0
0
CIRCLE
8
JA
 10
2.54
 20
62.22943
 30
0
 40
0.915
 39
  0
0
CIRCLE
8
JA
 10
12.7
 20
62.22943
 30
0
 40
0.585
 39
  0
0
CIRCLE
8
JA
 10
15.24
 20
62.22943
 30
0
 40
0.915
 39
  0
0
CIRCLE
8
JA
 10
17.78
 20
62.22943
 30
0
 40
0.915
 39
  0
0
CIRCLE
8
JA
 10
22.86
 20
62.22943
 30
0
 40
0.915
 39
  0
0
CIRCLE
8
JA
 10
2.54
 20
59.68943
 30
0
 40
0.915
 39
  0
0
CIRCLE
8
JA
 10
7.62
 20
59.68943
 30
0
 40
0.915
 39
  0
0
CIRCLE
8
JA
 10
12.7
 20
59.68943
 30
0
 40
0.585
 39
  0
0
CIRCLE
8
JA
 10
15.24
 20
59.68943
 30
0
 40
0.915
 39
  0
0
CIRCLE
8
JA
 10
17.78
 20
59.68943
 30
0
 40
0.915
 39
  0
0
CIRCLE
8
JA
 10
2.54
 20
57.14943
 30
0
 40
0.915
 39
  0
0
CIRCLE
8
JA
 10
7.62
 20
57.14943
 30
0
 40
0.915
 39
  0
0
CIRCLE
8
JA
 10
12.7
 20
57.14943
 30
0
 40
0.585
 39
  0
0
CIRCLE
8
JA
 10
20.32
 20
57.14943
 30
0
 40
0.915
 39
  0
0
CIRCLE
8
JA
 10
22.86
 20
57.14943
 30
0
 40
0.915
 39
  0
0
CIRCLE
8
JA
 10
2.54
 20
54.60943
 30
0
 40
0.915
 39
  0
0
CIRCLE
8
JA
 10
5.08
 20
54.60943
 30
0
 40
0.915
 39
  0
0
CIRCLE
8
JA
 10
12.7
 20
54.60943
 30
0
 40
0.585
 39
  0
0
CIRCLE
8
JA
 10
20.32
 20
54.60943
 30
0
 40
0.915
 39
  0
0
CIRCLE
8
JA
 10
22.86
 20
54.60943
 30
0
 40
0.915
 39
  0
0
CIRCLE
8
JA
 10
2.54
 20
52.06943
 30
0
 40
0.915
 39
  0
0
CIRCLE
8
JA
 10
5.08
 20
52.06943
 30
0
 40
0.915
 39
  0
0
CIRCLE
8
JA
 10
12.7
 20
52.06943
 30
0
 40
0.585
 39
  0
0
CIRCLE
8
JA
 10
20.32
 20
52.06943
 30
0
 40
0.915
 39
  0
0
CIRCLE
8
JA
 10
22.86
 20
52.06943
 30
0
 40
0.915
 39
  0
0
CIRCLE
8
JA
 10
2.54
 20
49.52943
 30
0
 40
0.915
 39
  0
0
CIRCLE
8
JA
 10
5.08
 20
49.52943
 30
0
 40
0.915
 39
  0
0
CIRCLE
8
JA
 10
12.7
 20
49.52943
 30
0
 40
0.585
 39
  0
0
CIRCLE
8
JA
 10
20.32
 20
49.52943
 30
0
 40
0.915
 39
  0
0
CIRCLE
8
JA
 10
22.86
 20
49.52943
 30
0
 40
0.915
 39
  0
0
CIRCLE
8
JA
 10
5.08
 20
46.98943
 30
0
 40
0.915
 39
  0
0
CIRCLE
8
JA
 10
12.7
 20
46.98943
 30
0
 40
0.585
 39
  0
0
CIRCLE
8
JA
 10
15.24
 20
46.98943
 30
0
 40
0.915
 39
  0
0
CIRCLE
8
JA
 10
17.78
 20
46.98943
 30
0
 40
0.915
 39
  0
0
CIRCLE
8
JA
 10
22.86
 20
46.98943
 30
0
 40
0.915
 39
  0
0
CIRCLE
8
JA
 10
12.7
 20
44.44942
 30
0
 40
0.585
 39
  0
0
CIRCLE
8
JA
 10
15.24
 20
44.44942
 30
0
 40
0.915
 39
  0
0
CIRCLE
8
JA
 10
17.78
 20
44.44942
 30
0
 40
0.915
 39
  0
0
CIRCLE
8
JA
 10
2.54
 20
41.90942
 30
0
 40
0.915
 39
  0
0
CIRCLE
8
JA
 10
12.7
 20
41.90942
 30
0
 40
0.585
 39
  0
0
CIRCLE
8
JA
 10
15.24
 20
41.90942
 30
0
 40
0.915
 39
  0
0
CIRCLE
8
JA
 10
17.78
 20
41.90942
 30
0
 40
0.915
 39
  0
0
CIRCLE
8
JA
 10
22.86
 20
41.90942
 30
0
 40
0.915
 39
  0
0
CIRCLE
8
JA
 10
2.54
 20
39.36942
 30
0
 40
0.915
 39
  0
0
CIRCLE
8
JA
 10
10.16
 20
39.36942
 30
0
 40
0.915
 39
  0
0
CIRCLE
8
JA
 10
12.7
 20
39.36942
 30
0
 40
0.585
 39
  0
0
CIRCLE
8
JA
 10
15.24
 20
39.36942
 30
0
 40
0.915
 39
  0
0
CIRCLE
8
JA
 10
17.78
 20
39.36942
 30
0
 40
0.915
 39
  0
0
CIRCLE
8
JA
 10
12.7
 20
36.82942
 30
0
 40
0.585
 39
  0
0
CIRCLE
8
JA
 10
15.24
 20
36.82942
 30
0
 40
0.915
 39
  0
0
CIRCLE
8
JA
 10
17.78
 20
36.82942
 30
0
 40
0.915
 39
  0
0
CIRCLE
8
JA
 10
2.54
 20
34.28942
 30
0
 40
0.915
 39
  0
0
CIRCLE
8
JA
 10
5.08
 20
34.28942
 30
0
 40
0.915
 39
  0
0
CIRCLE
8
JA
 10
12.7
 20
34.28942
 30
0
 40
0.585
 39
  0
0
CIRCLE
8
JA
 10
15.24
 20
34.28942
 30
0
 40
0.915
 39
  0
0
CIRCLE
8
JA
 10
17.78
 20
34.28942
 30
0
 40
0.915
 39
  0
0
CIRCLE
8
JA
 10
2.54
 20
31.74942
 30
0
 40
0.915
 39
  0
0
CIRCLE
8
JA
 10
12.7
 20
31.74942
 30
0
 40
0.585
 39
  0
0
CIRCLE
8
JA
 10
15.24
 20
31.74942
 30
0
 40
0.915
 39
  0
0
CIRCLE
8
JA
 10
17.78
 20
31.74942
 30
0
 40
0.915
 39
  0
0
CIRCLE
8
JA
 10
22.86
 20
31.74942
 30
0
 40
0.915
 39
  0
0
CIRCLE
8
JA
 10
2.54
 20
29.20942
 30
0
 40
0.915
 39
  0
0
CIRCLE
8
JA
 10
10.16
 20
29.20942
 30
0
 40
0.915
 39
  0
0
CIRCLE
8
JA
 10
12.7
 20
29.20942
 30
0
 40
0.585
 39
  0
0
CIRCLE
8
JA
 10
15.24
 20
29.20942
 30
0
 40
0.915
 39
  0
0
CIRCLE
8
JA
 10
17.78
 20
29.20942
 30
0
 40
0.915
 39
  0
0
CIRCLE
8
JA
 10
5.08
 20
26.66942
 30
0
 40
0.915
 39
  0
0
CIRCLE
8
JA
 10
10.16
 20
26.66942
 30
0
 40
0.915
 39
  0
0
CIRCLE
8
JA
 10
12.7
 20
26.66942
 30
0
 40
0.585
 39
  0
0
CIRCLE
8
JA
 10
12.7
 20
24.12942
 30
0
 40
0.585
 39
  0
0
CIRCLE
8
JA
 10
12.7
 20
21.58942
 30
0
 40
0.585
 39
  0
0
CIRCLE
8
JA
 10
12.7
 20
19.04942
 30
0
 40
0.585
 39
  0
0
CIRCLE
8
JA
 10
12.7
 20
16.50941
 30
0
 40
0.585
 39
  0
0
CIRCLE
8
JA
 10
12.7
 20
13.96941
 30
0
 40
0.585
 39
  0
0
CIRCLE
8
JA
 10
12.7
 20
11.42941
 30
0
 40
0.585
 39
  0
0
CIRCLE
8
JA
 10
12.7
 20
8.889415
 30
0
 40
0.585
 39
  0
0
CIRCLE
8
JA
 10
12.7
 20
6.349415
 30
0
 40
0.585
 39
  0
0
CIRCLE
8
JA
 10
12.7
 20
3.809415
 30
0
 40
0.585
 39
  0
0
CIRCLE
8
JA
 10
12.7
 20
1.269415
 30
0
 40
0.585
 39
  0
0
ENDSEC
  0
EOF
